<?xml version="1.0" encoding="UTF-8"?>
<svg xmlns:xlink="http://www.w3.org/1999/xlink" xmlns="http://www.w3.org/2000/svg" viewBox="279.612 243.950937891782 170.1 166.859998558" style="max-height: 500px; background: transparent;" width="170.1" height="166.859998558">
<defs>
<clipPath id="clip-0">
<path d="M 280.289062 243 L 447 243 L 447 409.5 L 280.289062 409.5 Z M 280.289062 243" clip-rule="nonzero"/>
</clipPath>
</defs>


<path d="M 337.894531 390.542969 C 331.785156 391.257812 318.34375 388.515625 321.257812 395.464844 C 322.464844 398.339844 332.257812 397.289062 337.351562 397.292969 L 414.601562 397.289062 C 419.277344 397.289062 421.601562 397.519531 420.976562 392.402344 C 415.480469 388.757812 397.855469 391.152344 389.390625 390.585938 C 391.246094 388.832031 392.9375 387.199219 393.078125 383.230469 C 393.117188 382.15625 392.949219 381.171875 393.070312 380.304688 C 393.542969 376.863281 394.878906 378.921875 395.578125 373.707031 L 400.058594 321.1875 C 401.257812 317.890625 404.421875 319.132812 403.601562 312.765625 C 403.128906 311.386719 395.71875 302.464844 387.117188 302.457031 L 347.007812 302.484375 C 341.546875 302.460938 336.644531 301.597656 333.214844 304.164062 C 332.140625 304.964844 325.238281 310.566406 324.71875 311.308594 C 321.125 316.472656 326.941406 317.945312 327.558594 322.417969 C 328.226562 327.246094 328.472656 332.707031 328.824219 337.722656 L 331.996094 373.695312 C 332.820312 379.480469 333.667969 377.644531 334.449219 379.351562 C 336.164062 383.101562 332.132812 382.886719 337.894531 390.542969 Z M 337.894531 390.542969" fill-opacity="1" fill="rgb(12.939453%, 22.349548%, 28.62854%)" fill-rule="evenodd"/>
<g clip-path="url(#clip-0)">
<path d="M 305.859375 243.246094 C 295.964844 243.996094 288.832031 250.152344 284.488281 257.007812 C 279.054688 265.582031 280.582031 277.644531 280.574219 289.027344 C 280.5625 312.765625 280.554688 336.503906 280.582031 360.242188 C 280.597656 370.757812 279.03125 384.71875 283.140625 393.550781 C 293.367188 415.535156 315.894531 409.980469 338.09375 410.007812 L 409.402344 410.007812 C 423.828125 409.996094 428.871094 410.21875 437.410156 402.316406 C 444.273438 395.964844 446.402344 388.429688 446.390625 375.816406 C 446.363281 343.804688 447.695312 297.882812 446.328125 269.070312 C 445.621094 254.113281 432.246094 243.347656 419.078125 243.152344 C 416.105469 243.109375 403.605469 242.832031 401.625 243.53125 C 398.070312 244.785156 396.734375 251.707031 404.886719 251.941406 C 410.523438 252.101562 417.109375 251.042969 422.394531 252.351562 C 427.101562 253.519531 431.007812 256.933594 432.980469 259.550781 C 436.371094 264.050781 436.988281 266.773438 436.996094 273.4375 L 436.988281 380.300781 C 436.597656 407.515625 407.863281 401.421875 387.117188 401.425781 L 315.800781 401.421875 C 309.851562 401.4375 305.421875 401.761719 300.679688 399.089844 C 297.402344 397.246094 293.621094 393.476562 291.929688 390.027344 C 288.167969 382.34375 289.863281 304.503906 289.859375 285.316406 C 289.859375 271.726562 288.4375 264.132812 296.832031 256.710938 C 307.488281 247.289062 318.003906 254.90625 327.3125 251.480469 C 331.695312 249.867188 331.609375 243.246094 323.292969 243.109375 C 318.058594 243.023438 310.9375 242.859375 305.859375 243.242188 Z M 305.859375 243.246094" fill-opacity="1" fill="rgb(12.939453%, 22.349548%, 28.62854%)" fill-rule="evenodd"/>
</g>
<path d="M 339.75 372.117188 C 340.832031 372.789062 338.980469 373.171875 345.519531 373.175781 L 387.910156 373.128906 L 391.992188 323.238281 L 335.351562 323.246094 Z M 339.75 372.117188" fill-opacity="1" fill="rgb(99.609375%, 99.609375%, 99.609375%)" fill-rule="evenodd"/>
<path d="M 362.023438 252.476562 C 341.492188 255.003906 329.542969 270.136719 331.929688 275.144531 C 335.195312 281.996094 339.773438 271.644531 345.910156 266.429688 C 356.949219 257.039062 373.554688 257.667969 384.78125 269.101562 C 385.832031 270.175781 389.707031 275.792969 390.867188 276.433594 C 395.132812 278.785156 397.203125 274.433594 395.917969 271.351562 C 392.265625 262.601562 376.523438 250.6875 362.023438 252.476562 Z M 362.023438 252.476562" fill-opacity="1" fill="rgb(97.24884%, 40.388489%, 3.529358%)" fill-rule="evenodd"/>
<path d="M 333.476562 315.03125 C 339.140625 315.628906 389.398438 316.671875 394.382812 314.742188 C 392.40625 308.890625 384.015625 310.058594 379.691406 310.054688 L 339.578125 310.0625 C 338.066406 310.0625 334.417969 311.949219 333.476562 315.03125 Z M 333.476562 315.03125" fill-opacity="1" fill="rgb(99.609375%, 99.609375%, 99.609375%)" fill-rule="evenodd"/>
<path d="M 360.109375 269.105469 C 354.804688 270.449219 353.453125 270.730469 349.582031 273.796875 C 347.957031 275.085938 342.253906 280.554688 346.796875 283.304688 C 352.039062 286.476562 355.121094 272.382812 368.847656 276.855469 C 374.621094 278.734375 374.742188 281.828125 377.417969 283.195312 C 382.871094 285.972656 383.917969 279.839844 381.207031 276.417969 C 377.230469 271.390625 368.507812 266.980469 360.109375 269.105469 Z M 360.109375 269.105469" fill-opacity="1" fill="rgb(97.24884%, 40.388489%, 3.529358%)" fill-rule="evenodd"/>
<path d="M 348.253906 390.609375 L 379.425781 390.6875 C 376.148438 387.632812 375.703125 385.777344 376.027344 380.65625 L 352.207031 380.675781 L 351.683594 383.300781 C 350.710938 389.914062 350.921875 386.4375 348.253906 390.609375 Z M 348.253906 390.609375" fill-opacity="1" fill="rgb(99.609375%, 99.609375%, 99.609375%)" fill-rule="evenodd"/>
<path d="M 361.789062 284.546875 C 353.367188 288.585938 358.980469 298.550781 366.578125 295.910156 C 372.421875 293.882812 371.03125 284.28125 364.757812 283.878906 C 361.988281 283.699219 362.058594 284.414062 361.789062 284.546875 Z M 361.789062 284.546875" fill-opacity="1" fill="rgb(98.429871%, 72.549438%, 27.449036%)" fill-rule="evenodd"/>
<path d="M 313.753906 284.578125 C 315.378906 288.785156 315.386719 284.289062 318.488281 289.261719 C 319.886719 291.503906 317.6875 290.054688 320.265625 291.351562 C 323.367188 289.644531 320.964844 289.480469 323.136719 287.527344 C 324.914062 285.925781 325.40625 287.730469 327.046875 284.578125 L 325.683594 283.660156 C 325.550781 283.59375 325.320312 283.5 325.171875 283.425781 C 319.742188 280.667969 324.082031 280.625 320.265625 278.671875 C 316.773438 280.089844 320.027344 279.527344 317.765625 282.117188 C 316.179688 283.933594 315.761719 282.671875 313.753906 284.578125 Z M 313.753906 284.578125" fill-opacity="1" fill="rgb(98.429871%, 72.549438%, 27.449036%)" fill-rule="evenodd"/>
<path d="M 399.863281 285.316406 C 401.832031 287.40625 401.683594 285.949219 403.542969 287.503906 C 405.960938 289.527344 403.46875 289.398438 406.433594 291.359375 C 407.949219 290.632812 407.0625 291.246094 407.976562 289.898438 L 409.027344 287.980469 C 410.167969 286.617188 409.277344 287.585938 410.757812 286.699219 C 412.125 285.878906 411.785156 286.34375 413.082031 285.316406 C 411.71875 282.078125 411.699219 284.542969 409.371094 282.332031 C 407.378906 280.445312 408.976562 279.597656 406.433594 278.660156 C 403.347656 280.277344 406.394531 280.1875 403.605469 282.539062 C 401.082031 284.667969 401.453125 281.863281 399.863281 285.316406 Z M 399.863281 285.316406" fill-opacity="1" fill="rgb(98.429871%, 72.549438%, 27.449036%)" fill-rule="evenodd"/>
<path d="M 296.59375 267.515625 C 297.585938 269.21875 296.441406 267.898438 298.019531 268.921875 C 304.25 272.960938 299.324219 272.089844 303.179688 274.015625 C 306.054688 271.515625 302.960938 272.085938 307.148438 269.335938 C 309.429688 267.835938 307.6875 270.101562 309.332031 267.515625 C 307.761719 265.328125 309.175781 267.121094 307.597656 266.082031 C 302.621094 262.804688 306.140625 263.695312 303.179688 261.039062 C 300.722656 262.808594 302.378906 263.007812 300.546875 264.851562 C 298.144531 267.265625 298.191406 264.640625 296.59375 267.515625 Z M 296.59375 267.515625" fill-opacity="1" fill="rgb(97.24884%, 40.388489%, 3.529358%)" fill-rule="evenodd"/>
<path d="M 417.683594 267.515625 C 419.105469 269.9375 419.921875 268.722656 421.519531 270.226562 C 423.417969 272.011719 421.539062 272.53125 424.257812 274.015625 C 426.910156 272.132812 424.785156 272.203125 426.984375 270.128906 C 428.695312 268.519531 428.835938 269.839844 430.699219 267.515625 C 428.820312 265.351562 428.710938 266.835938 426.847656 264.9375 C 424.863281 262.914062 426.679688 262.964844 424.257812 261.128906 C 421.78125 262.3125 423.601562 262.828125 421.601562 264.867188 C 419.007812 267.519531 419.261719 264.558594 417.683594 267.515625 Z M 417.683594 267.515625" fill-opacity="1" fill="rgb(97.24884%, 40.388489%, 3.529358%)" fill-rule="evenodd"/>
<path d="M 314.097656 391.394531 L 307.3125 390.945312 C 305.710938 393.28125 304.050781 396.714844 309.144531 397.25 C 314.339844 397.796875 316.449219 396.054688 314.097656 391.394531 Z M 314.097656 391.394531" fill-opacity="1" fill="rgb(12.939453%, 22.349548%, 28.62854%)" fill-rule="evenodd"/>
<path d="M 343.574219 331.910156 L 343.574219 364.464844 C 343.574219 366.207031 344.449219 367.074219 346.191406 367.074219 L 346.683594 367.074219 C 348.425781 367.074219 349.296875 366.207031 349.296875 364.464844 L 349.296875 331.910156 C 349.296875 330.167969 348.425781 329.296875 346.683594 329.296875 L 346.191406 329.296875 C 344.449219 329.296875 343.574219 330.167969 343.574219 331.910156 Z M 343.574219 331.910156" fill-opacity="1" fill="rgb(98.429871%, 0.779724%, 1.179504%)" fill-rule="evenodd"/>
<path d="M 360.761719 331.910156 L 360.761719 364.464844 C 360.761719 366.207031 361.632812 367.074219 363.378906 367.074219 L 363.867188 367.074219 C 365.613281 367.074219 366.484375 366.207031 366.484375 364.464844 L 366.484375 331.910156 C 366.484375 330.167969 365.613281 329.296875 363.867188 329.296875 L 363.378906 329.296875 C 361.632812 329.296875 360.761719 330.167969 360.761719 331.910156 Z M 360.761719 331.910156" fill-opacity="1" fill="rgb(0.779724%, 45.878601%, 36.079407%)" fill-rule="evenodd"/>
<path d="M 377.949219 331.910156 L 377.949219 364.464844 C 377.949219 366.207031 378.820312 367.074219 380.5625 367.074219 L 381.054688 367.074219 C 382.796875 367.074219 383.671875 366.207031 383.671875 364.464844 L 383.671875 331.910156 C 383.671875 330.167969 382.796875 329.296875 381.054688 329.296875 L 380.5625 329.296875 C 378.820312 329.296875 377.949219 330.167969 377.949219 331.910156 Z M 377.949219 331.910156" fill-opacity="1" fill="rgb(5.488586%, 49.01886%, 83.918762%)" fill-rule="evenodd"/>
<path transform="matrix(0.40826, 0, 0, 0.407704, 200.191163, 209.79423)" d="M 295.117651 451.409986 L 295.117651 453.335785 C 295.117651 457.752668 297.327871 459.956319 301.748312 459.956319 L 533.993684 459.956319 C 538.404557 459.956319 540.614777 457.752668 540.614777 453.335785 L 540.614777 451.409986 C 540.614777 446.993103 538.404557 444.789452 533.993684 444.789452 L 301.748312 444.789452 C 297.327871 444.789452 295.117651 446.993103 295.117651 451.409986 Z M 295.117651 451.409986" stroke-miterlimit="4" stroke-opacity="1" stroke="rgb(12.939453%, 22.349548%, 28.62854%)" stroke-linejoin="round" stroke-linecap="round" stroke-width="0.5" fill-opacity="1" fill="rgb(12.939453%, 22.349548%, 28.62854%)" fill-rule="evenodd"/>
<path transform="matrix(0.40826, 0, 0, 0.407704, 200.191163, 209.79423)" d="M 256.663642 451.409986 L 256.663642 453.335785 C 256.663642 457.752668 258.873862 459.956319 263.284735 459.956319 L 274.565471 459.956319 C 278.976344 459.956319 281.186564 457.752668 281.186564 453.335785 L 281.186564 451.409986 C 281.186564 446.993103 278.976344 444.789452 274.565471 444.789452 L 263.284735 444.789452 C 258.873862 444.789452 256.663642 446.993103 256.663642 451.409986 Z M 256.663642 451.409986" stroke-miterlimit="4" stroke-opacity="1" stroke="rgb(12.939453%, 22.349548%, 28.62854%)" stroke-linejoin="round" stroke-linecap="round" stroke-width="0.5" fill-opacity="1" fill="rgb(0%, 0%, 0%)" fill-rule="evenodd"/>
</svg>