<svg version="1.1" id="Layer_1" xmlns="http://www.w3.org/2000/svg" xmlns:xlink="http://www.w3.org/1999/xlink" x="0px" y="0px"
	 width="100%" viewBox="0 0 776 344" enable-background="new 0 0 776 344" xml:space="preserve">
<path fill="#FDFDFD" opacity="1.000000" stroke="none" 
	d="
M573.000000,345.000000 
	C382.042480,345.000000 191.584976,345.000000 1.063734,345.000000 
	C1.063734,230.401428 1.063734,115.802811 1.063734,1.102097 
	C259.666656,1.102097 518.333313,1.102097 776.977051,1.102097 
	C776.977051,115.748413 776.977051,230.374207 776.977051,345.000000 
	C709.136047,345.000000 641.318054,345.000000 573.000000,345.000000 
M312.173828,103.859634 
	C310.785492,103.930733 309.397125,104.001831 307.204773,103.922134 
	C306.127228,104.029045 305.049713,104.135956 303.140503,104.152588 
	C299.428040,104.772049 295.715607,105.391502 291.456543,105.935562 
	C290.945862,106.102509 290.435211,106.269455 289.111664,106.534782 
	C282.859497,109.451515 276.038635,111.582573 270.550415,115.554802 
	C266.744904,118.309120 263.286926,123.280090 262.311218,127.826691 
	C260.569580,135.942368 259.722137,144.252670 261.609070,152.930954 
	C262.915924,158.941330 265.992371,163.236786 270.076233,166.197144 
	C279.097015,172.736282 289.458710,173.257385 300.547302,169.631927 
	C301.024719,169.085281 301.502167,168.538635 302.720795,168.035110 
	C310.294189,165.179916 315.507538,159.939194 318.934998,152.071518 
	C319.630402,153.045105 320.325775,154.018707 321.011353,155.741287 
	C321.880280,157.890915 322.716095,160.054626 323.623840,162.187744 
	C327.586914,171.500916 336.578339,173.959503 345.670868,167.801300 
	C347.801422,164.909180 350.120026,162.129013 351.948486,159.057083 
	C352.501007,158.128815 351.694550,156.391663 351.505737,154.988937 
	C348.143677,158.662308 345.589661,161.452835 342.259949,164.168991 
	C340.453369,162.750336 337.711945,161.676407 337.035126,159.841141 
	C335.634003,156.041702 334.754028,151.848740 334.673889,147.797546 
	C334.278564,127.826126 334.442688,107.842384 333.938782,87.874863 
	C333.684875,77.812737 330.761261,68.274887 321.959259,62.325607 
	C311.554657,55.293118 299.774017,55.589249 287.194122,57.881275 
	C285.430603,58.428890 283.667053,58.976505 281.174805,59.727631 
	C274.392517,62.063351 269.056702,65.889771 266.105103,72.818329 
	C263.807251,78.212326 263.596741,83.169128 267.576324,87.672531 
	C268.587219,88.816483 270.538605,89.674179 272.024933,89.626907 
	C272.786163,89.602692 274.006409,87.329964 274.109100,86.002998 
	C274.751251,77.706223 278.003784,70.725853 284.663300,64.913383 
	C286.437347,64.016983 288.211395,63.120579 290.916962,62.164413 
	C294.227234,62.075859 297.543884,61.812351 300.846527,61.932705 
	C309.544617,62.249660 317.157166,70.646049 317.808929,75.780815 
	C318.826874,83.800819 318.920929,91.944061 319.232239,100.041794 
	C319.282745,101.355721 318.434387,102.704208 317.177704,103.878006 
	C315.784729,103.918701 314.391754,103.959396 312.173828,103.859634 
M360.423096,240.682892 
	C361.629639,242.427917 362.836151,244.172958 364.253601,246.510345 
	C365.184387,247.327225 366.115173,248.144104 367.271637,249.614655 
	C375.804626,256.403137 385.136780,258.324127 396.109039,254.127670 
	C397.764648,253.127975 399.420288,252.128281 401.754547,250.982254 
	C404.643402,248.065506 407.532257,245.148743 410.421112,242.231995 
	C410.119659,241.843155 409.818207,241.454315 409.516754,241.065460 
	C407.631805,242.932327 405.929962,245.565063 402.892731,242.351013 
	C403.670471,240.921112 404.448242,239.491211 405.910889,237.862244 
	C408.522797,237.269470 410.417633,235.919022 411.286469,232.488678 
	C413.612152,230.356064 415.038483,227.978134 413.206055,224.059189 
	C412.772278,222.693268 412.338501,221.327332 411.866943,219.238846 
	C410.655975,216.580902 409.444977,213.922974 407.672241,210.032120 
	C406.704193,212.254898 405.866882,213.330872 405.830841,214.433044 
	C405.750916,216.876709 406.073090,219.333527 406.181030,222.612488 
	C406.043457,223.703278 405.905853,224.794052 405.242065,226.059158 
	C405.000580,227.200760 404.759064,228.342377 404.140350,231.267151 
	C402.587463,229.185791 401.686066,227.977615 401.563599,227.813461 
	C399.248016,228.635529 396.898865,228.889832 395.378540,230.146713 
	C393.163391,231.978043 388.171356,232.009735 389.698669,237.626099 
	C388.773682,239.401871 387.848694,241.177628 386.280334,243.070572 
	C385.875916,243.220352 385.471497,243.370132 384.450073,243.149185 
	C383.878937,242.136520 383.307770,241.123871 382.605103,239.383072 
	C382.070007,237.541351 381.534882,235.699646 381.005432,233.091003 
	C380.742889,232.528244 380.623230,231.638184 380.196381,231.451843 
	C373.765076,228.644287 373.685425,228.394714 377.303894,222.172531 
	C377.681396,221.523392 377.684265,220.656372 377.948730,219.263077 
	C378.795715,217.368790 379.642700,215.474487 380.428802,213.716339 
	C381.088196,214.092712 381.760284,214.476349 382.555939,214.930496 
	C382.666718,213.278870 382.747253,212.078339 383.341949,210.765549 
	C383.563751,210.507370 383.785553,210.249176 384.701752,209.742569 
	C385.705566,209.774429 386.755859,210.011337 387.703705,209.796417 
	C389.830627,209.314163 391.906616,208.607468 394.453033,207.817429 
	C394.733032,207.631195 394.921997,207.377197 395.807220,207.067337 
	C398.641663,207.711334 401.476105,208.355347 404.310547,208.999344 
	C404.507111,208.514954 404.703674,208.030548 404.900238,207.546143 
	C401.959076,205.980133 399.017914,204.414124 395.629303,202.231323 
	C388.207275,199.585159 380.856598,199.682312 373.706329,203.082001 
	C372.583710,203.615784 371.863403,204.995758 370.428802,206.170990 
	C369.966980,206.473816 369.505157,206.776657 368.685699,206.578476 
	C367.610596,206.993225 366.535461,207.407974 365.460358,207.822723 
	C365.546051,208.134674 365.631775,208.446625 365.717499,208.758591 
	C366.754181,208.839828 367.790894,208.921066 368.794250,209.792160 
	C370.584991,212.129013 371.962097,214.274673 368.215118,216.304413 
	C366.873352,217.031265 366.059784,218.733292 364.494080,220.506256 
	C356.890533,225.212097 355.682953,227.865021 358.277191,234.753662 
	C358.957520,236.515625 359.637848,238.277588 360.423096,240.682892 
M635.335876,41.412975 
	C633.971924,43.944260 632.607910,46.475544 630.915894,49.626854 
	C627.074219,55.982113 621.084167,59.129040 614.191223,61.092693 
	C612.760437,61.500309 611.590698,62.824333 610.300598,63.726009 
	C610.581543,64.293655 610.862488,64.861305 611.143372,65.428947 
	C615.240967,65.428947 619.338562,65.428947 623.954285,65.428947 
	C623.954285,68.073654 623.953735,70.203293 623.954407,72.332924 
	C623.962097,96.972282 623.878113,121.612160 624.015625,146.250793 
	C624.086975,159.041000 632.566406,169.287354 644.693176,171.312485 
	C656.678162,172.870346 665.106750,167.230820 671.595398,157.861938 
	C672.159058,157.048065 671.864685,155.639908 671.968811,154.507782 
	C670.878845,154.928635 669.345093,155.027679 668.769348,155.821503 
	C664.326721,161.947113 658.266724,164.180573 650.347900,163.276520 
	C641.889221,160.132431 639.121033,152.656723 638.978516,145.065826 
	C638.479248,118.487762 638.848633,91.893394 639.840942,65.319740 
	C648.118408,65.364273 656.397156,65.486549 664.671814,65.355011 
	C665.706665,65.338562 666.720093,63.980484 667.743408,63.244030 
	C666.736206,62.293636 665.741943,60.539013 664.719788,60.522648 
	C657.792786,60.411716 650.859985,60.667915 643.112915,60.609371 
	C641.714722,60.465450 640.316528,60.321529 638.892395,60.174938 
	C638.692444,56.488926 638.516724,53.250336 638.613525,49.199795 
	C638.518250,46.472816 638.422913,43.745842 638.558960,40.326462 
	C638.427063,37.978615 638.295227,35.630764 638.163391,33.282913 
	C637.899963,33.310486 637.636475,33.338055 637.373047,33.365627 
	C636.857300,35.890770 636.341553,38.415916 635.335876,41.412975 
M443.039368,60.597267 
	C436.724304,60.597267 430.409271,60.597267 423.097321,60.597267 
	C424.249451,62.450314 424.476257,63.305389 424.900391,63.418098 
	C427.770355,64.180779 430.717285,65.048485 429.999237,68.816330 
	C429.503967,71.415176 428.379333,73.956825 427.171295,76.339127 
	C426.009369,78.630478 424.378510,80.684021 422.334747,83.138405 
	C412.233887,94.774261 402.133057,106.410118 391.292633,118.214905 
	C391.153168,118.305771 391.023468,118.423210 390.871216,118.479240 
	C390.745209,118.525627 390.470581,118.515724 390.468933,118.503235 
	C390.259644,116.928146 389.904907,115.350716 389.902985,113.772980 
	C389.869110,86.133362 389.886566,58.493671 389.862030,30.854029 
	C389.860229,28.813274 389.623993,26.772728 389.509766,24.940775 
	C381.368347,27.298861 373.906250,29.460196 366.081543,31.726559 
	C366.791748,32.756447 367.067291,33.634117 367.513672,33.731911 
	C374.809204,35.330250 374.597992,41.257488 374.616882,46.611847 
	C374.743835,82.576370 374.751465,118.541702 374.636536,154.506271 
	C374.619873,159.721695 374.616791,165.428741 367.512054,166.819061 
	C367.062622,166.906998 366.761902,167.754944 365.758789,169.095551 
	C377.389435,169.095551 388.173279,169.095551 399.649811,169.095551 
	C398.868195,167.858414 398.645691,167.019470 398.207520,166.885406 
	C391.106323,164.712418 389.734955,159.228729 389.824646,152.781036 
	C389.905670,146.954468 389.930328,141.124603 389.829620,135.298798 
	C389.749573,130.669235 389.532349,126.066765 393.800995,122.139099 
	C395.595184,120.072029 397.389404,118.004959 399.336273,115.762016 
	C403.202240,121.007423 406.570709,125.577835 409.959900,130.883179 
	C410.265900,131.792175 410.411865,132.800766 410.905060,133.593292 
	C413.290527,137.426697 415.769348,141.202011 418.350586,145.642380 
	C421.916992,150.399750 425.483398,155.157120 429.159790,160.743210 
	C427.586273,163.517990 426.012726,166.292770 424.463531,169.024673 
	C431.307465,170.743973 455.604431,169.972778 458.458618,167.262512 
	C446.835876,165.453873 443.291229,155.320648 437.033356,147.249725 
	C433.061096,141.391998 429.088837,135.534286 424.829559,129.040070 
	C421.839264,124.047653 418.848999,119.055237 415.607056,113.440041 
	C407.370514,103.299988 409.583405,104.560287 416.171478,97.840240 
	C419.247528,94.702530 421.456116,90.714378 424.658112,86.803040 
	C431.145050,79.938408 437.631989,73.073776 444.903534,66.175644 
	C447.423706,65.406555 449.980865,64.736549 452.444946,63.817169 
	C453.366699,63.473244 454.071655,62.548302 454.875458,61.888271 
	C454.038330,61.325722 453.212372,60.305363 452.362030,60.284611 
	C449.569519,60.216484 446.768188,60.511158 443.039368,60.597267 
M154.468369,126.260666 
	C154.606415,120.174797 154.744461,114.088921 155.011978,107.094864 
	C155.038925,93.729515 150.637955,81.810028 143.001556,71.024002 
	C136.921890,62.436810 128.626389,57.585529 117.317390,56.580845 
	C101.161682,55.078403 89.544472,62.287521 81.428795,76.217758 
	C81.086220,75.974091 80.743652,75.730415 80.401085,75.486748 
	C80.401085,69.446312 80.401085,63.405869 80.401085,57.479954 
	C71.551109,59.443481 63.324421,61.268723 55.097740,63.093960 
	C54.995373,63.576790 54.893005,64.059616 54.790642,64.542450 
	C63.806976,65.787422 66.223518,71.862106 66.555634,79.433746 
	C66.664856,81.923798 66.678566,84.418045 66.413551,87.666534 
	C66.492012,97.749641 66.570473,107.832741 66.363594,118.675484 
	C66.452103,122.465881 66.540611,126.256279 66.401421,130.556076 
	C66.489502,131.094299 66.577576,131.632507 66.513306,132.895370 
	C66.568115,133.869125 66.622917,134.842865 66.533928,136.754425 
	C66.587669,143.845322 66.641403,150.936203 66.450516,158.660248 
	C66.532600,159.097260 66.614685,159.534256 66.411652,160.826965 
	C66.504097,163.215561 66.596535,165.604172 66.414413,168.895065 
	C66.315697,176.883652 66.580421,184.898560 66.003891,192.852524 
	C65.538040,199.279617 63.911972,205.553101 57.865479,209.455276 
	C56.872135,210.096359 55.969604,210.878143 55.025101,211.594910 
	C56.276611,212.029892 57.581631,212.954559 58.771408,212.824554 
	C71.531799,211.430252 77.743225,204.043610 79.660782,192.330673 
	C81.279350,182.444031 80.254707,172.124649 80.676376,161.266525 
	C80.829247,160.223495 80.982124,159.180450 81.170273,157.896744 
	C100.077797,173.477661 115.684669,176.205902 130.950851,166.551407 
	C138.845139,161.963577 144.630173,155.540787 148.426407,146.431534 
	C150.314560,139.955170 152.202713,133.478806 154.468369,126.260666 
M509.880371,68.814644 
	C519.340210,64.154106 527.625671,67.969101 530.264954,78.035507 
	C530.623840,79.404503 531.760986,81.096992 532.955933,81.559547 
	C533.992737,81.960899 536.204224,81.257996 536.898621,80.311226 
	C542.906921,72.119408 542.108337,62.166065 532.015564,57.678734 
	C524.840820,54.488785 511.465485,57.085674 504.068329,66.793533 
	C501.045288,71.196510 498.022217,75.599487 495.033295,79.065392 
	C495.033295,71.785576 495.033295,64.505760 495.033295,56.486233 
	C491.690704,57.882557 489.317352,58.874001 486.086639,59.894386 
	C481.691284,60.592312 477.282959,61.221199 472.911285,62.044876 
	C472.008026,62.215061 471.241333,63.110203 470.411682,63.671215 
	C471.108429,64.205475 471.776672,64.782799 472.507141,65.266083 
	C474.945618,66.879364 477.406403,68.458969 479.895050,70.982269 
	C480.025848,98.865608 480.047760,126.750206 480.367950,154.631363 
	C480.443176,161.180145 478.350616,165.516937 471.724335,167.111206 
	C471.425903,167.182983 471.279785,167.887589 470.454590,169.445786 
	C476.061584,169.445786 481.020966,169.445786 486.886749,169.705078 
	C492.043854,169.718674 497.202667,169.803345 502.356384,169.678024 
	C503.247833,169.656357 504.117676,168.745010 504.997498,168.244614 
	C504.396820,167.606522 503.885559,166.837646 503.178955,166.354492 
	C500.917419,164.808136 498.583435,163.367676 496.076172,161.154739 
	C495.676361,159.431885 495.276520,157.709045 494.985291,155.056290 
	C494.947418,134.708664 494.909546,114.361031 495.042419,93.231102 
	C495.445831,90.863594 495.849243,88.496078 496.930176,85.983543 
	C500.388763,79.903923 502.718353,73.004303 509.880371,68.814644 
M199.473145,79.069542 
	C199.305618,79.050468 199.138077,79.031395 199.011993,78.074699 
	C198.932510,71.705162 198.853027,65.335625 198.819809,58.374233 
	C198.528549,58.149456 198.237305,57.924679 197.127670,57.551945 
	C189.785400,59.300648 182.443146,61.049347 175.062408,62.807209 
	C175.043869,63.038715 174.914764,63.402515 175.015488,63.684109 
	C175.168732,64.112587 175.417831,64.767380 175.735382,64.838463 
	C184.056915,66.701172 183.887589,73.293198 184.006073,79.675377 
	C184.157166,87.812920 184.221710,95.952072 184.127609,104.846024 
	C184.164764,108.905617 184.201920,112.965210 184.065582,117.944153 
	C184.055862,129.771469 184.157822,141.600357 183.990189,153.425430 
	C183.903992,159.506577 183.551056,165.700989 175.492508,166.955063 
	C175.176102,167.004303 175.008408,168.009140 174.593445,168.988983 
	C186.271927,168.988983 197.536972,168.988983 208.802032,168.988983 
	C208.263535,167.437424 207.575439,166.806824 206.764740,166.492569 
	C200.184479,163.941910 199.081253,162.411560 199.015976,155.487488 
	C198.939056,147.328644 198.866669,139.169769 198.944916,130.088898 
	C198.868317,120.788132 198.791702,111.487373 198.913239,101.380455 
	C198.248627,93.359406 199.539368,85.805038 204.759033,78.581871 
	C205.507874,72.930183 209.912399,70.075203 214.237747,68.144379 
	C223.016525,64.225548 230.326767,68.088577 234.726273,78.595436 
	C236.453400,82.720177 238.114227,82.430054 240.775665,79.760620 
	C244.902008,75.621872 245.271942,66.305595 241.420700,61.872654 
	C236.347473,56.033180 225.777802,54.924423 217.951508,58.498459 
	C208.732101,62.708679 204.586929,70.961395 200.005142,78.979721 
	C200.005142,78.979721 199.958893,78.928360 199.473145,79.069542 
M692.427185,116.856438 
	C692.342834,129.351013 692.322449,141.846466 692.149109,154.339798 
	C692.052368,161.308762 690.043945,163.898285 683.502808,166.531799 
	C682.791687,166.818100 682.358948,167.795929 681.797119,168.453003 
	C682.600952,168.870117 683.401367,169.642624 684.209045,169.650238 
	C694.038574,169.742874 703.869690,169.764496 713.698792,169.659851 
	C714.557556,169.650711 715.405334,168.620117 716.258179,168.063965 
	C709.945862,167.197327 707.920898,163.296478 707.114319,158.397095 
	C706.738098,156.112183 706.709595,153.752640 706.705811,151.426636 
	C706.680664,135.930908 706.744751,120.434944 706.693542,104.939339 
	C706.672668,98.625404 706.436462,92.312164 706.576721,85.098549 
	C706.576721,75.920792 706.576721,66.743034 706.576721,58.029457 
	C698.422546,59.597149 691.126892,60.973454 683.850098,62.442917 
	C683.183289,62.577572 682.636780,63.307964 682.034485,63.761761 
	C682.614136,64.400581 683.071655,65.322113 683.792725,65.633400 
	C689.507385,68.100662 692.018188,71.950867 692.083069,78.199799 
	C692.213989,90.812828 692.438293,103.424904 692.427185,116.856438 
M566.571777,62.137295 
	C564.791504,62.499928 563.011169,62.862564 560.953735,63.281662 
	C561.524414,64.467262 561.659119,65.214813 561.948853,65.280701 
	C569.443298,66.984886 570.648560,73.139908 570.712097,79.080208 
	C570.979248,104.037003 570.923096,128.999939 570.675598,153.957550 
	C570.618835,159.679886 569.289856,165.342285 562.209473,166.889572 
	C561.806824,166.977570 561.589233,167.912521 560.894470,169.149521 
	C572.355347,169.149521 583.221069,169.149521 594.741699,169.149521 
	C593.934937,167.807556 593.604675,166.632263 593.136963,166.574768 
	C586.869141,165.804214 586.628357,160.938370 586.088379,156.331207 
	C585.876404,154.522903 585.966370,152.675934 585.966248,150.846573 
	C585.964050,121.393951 585.974304,91.941330 585.960876,62.488716 
	C585.960083,60.770695 585.782532,59.052750 585.662476,56.888931 
	C582.193848,58.116859 579.465149,59.249329 576.640442,60.037540 
	C573.611816,60.882629 570.492920,61.403854 566.571777,62.137295 
M408.262543,284.553223 
	C406.074585,292.004028 403.886627,299.454834 401.279083,308.334503 
	C398.241455,298.398285 395.596588,289.746704 392.945923,281.076263 
	C389.727142,281.076263 386.762146,281.076263 383.603729,281.076263 
	C380.993591,289.722443 378.411957,298.274200 375.747467,307.100464 
	C375.116577,306.519165 374.924042,306.427948 374.882111,306.290710 
	C373.087891,300.419342 371.320038,294.539917 369.521362,288.669952 
	C367.046082,280.591919 367.036407,280.591156 358.423676,280.988129 
	C358.135773,281.001434 357.858673,281.248535 357.309937,281.517151 
	C361.664734,294.318817 366.028839,307.147919 370.357025,319.871338 
	C373.814850,319.871338 376.788696,319.871338 379.927185,319.871338 
	C382.517853,311.689545 385.084778,303.582764 387.651672,295.475983 
	C387.977448,295.506012 388.303223,295.536041 388.628967,295.566101 
	C391.156708,303.700836 393.684418,311.835571 396.187653,319.891449 
	C399.616302,319.891449 402.598633,319.891449 405.853424,319.891449 
	C410.236816,307.035187 414.612335,294.202118 419.145691,280.906097 
	C416.837158,280.906097 415.021820,280.962097 413.211365,280.891846 
	C410.974030,280.805084 408.771515,280.664337 408.262543,284.553223 
M165.980392,291.747742 
	C164.730865,291.134674 163.506958,290.069489 162.226822,289.996979 
	C158.966278,289.812317 155.661194,290.334412 152.409241,290.094696 
	C146.637527,289.669189 140.915604,289.301483 136.933823,294.547272 
	C132.802063,299.990723 132.766449,306.109283 135.567307,311.998596 
	C138.222382,317.581329 143.330124,319.502350 149.293289,318.959259 
	C151.692612,318.740723 154.042770,317.982269 156.460388,317.459808 
	C155.216492,324.289246 150.526459,326.814636 143.538177,323.469574 
	C138.530212,321.072418 137.161392,323.144958 135.793503,327.817352 
	C139.153732,328.898560 142.206238,330.454590 145.391113,330.804047 
	C157.708969,332.155518 166.927139,327.854034 166.054916,313.176056 
	C165.650772,306.375214 165.985626,299.530457 165.980392,291.747742 
M257.499939,231.254684 
	C286.492126,231.253525 315.484375,231.277008 344.476227,231.180710 
	C345.976074,231.175735 347.472534,230.147217 348.970551,229.595230 
	C347.565765,228.955276 346.161407,227.756195 344.756165,227.755173 
	C250.113876,227.686111 155.471542,227.713379 60.829201,227.733978 
	C59.829521,227.734192 58.748066,227.520020 57.851803,227.830429 
	C56.833408,228.183121 55.980591,229.013901 55.055786,229.636841 
	C56.054337,230.188995 56.997173,230.962555 58.066925,231.231766 
	C59.163456,231.507690 60.384178,231.288895 61.550545,231.288681 
	C126.533653,231.276810 191.516769,231.265152 257.499939,231.254684 
M544.500000,227.666977 
	C506.015350,227.677048 467.530701,227.687057 429.046051,227.697601 
	C428.213104,227.697830 427.313202,227.505905 426.564148,227.758392 
	C425.632172,228.072510 424.824707,228.756088 423.963501,229.280090 
	C424.856476,229.947174 425.673706,230.787415 426.668213,231.222366 
	C427.367737,231.528305 428.308380,231.283524 429.141357,231.283585 
	C522.270020,231.289337 615.398743,231.295105 708.527405,231.299622 
	C710.193359,231.299713 711.887817,231.464432 713.514099,231.206192 
	C714.436340,231.059753 715.246704,230.208221 716.107422,229.674240 
	C715.215576,229.012634 714.408020,228.036407 713.410522,227.769104 
	C712.166748,227.435776 710.766296,227.685730 709.433533,227.685623 
	C654.789001,227.681305 600.144531,227.677170 544.500000,227.666977 
M244.086578,313.470825 
	C244.097885,310.478760 243.948959,307.475433 244.158295,304.497284 
	C244.466705,300.109741 247.871979,296.534698 251.330841,297.094391 
	C255.539261,297.775299 256.805237,300.878448 256.789673,304.760071 
	C256.769836,309.703705 256.784851,314.647522 256.784851,319.674957 
	C260.049957,319.674957 262.917419,319.674957 265.977783,319.674957 
	C265.977783,313.214020 266.118225,307.077271 265.941162,300.949707 
	C265.733612,293.767487 261.779449,289.864075 254.653763,289.988190 
	C251.182541,290.048645 247.725037,290.896973 243.898682,291.440155 
	C243.898682,287.371033 243.898682,283.281158 243.898682,279.151428 
	C240.779938,279.151428 238.035324,279.151428 235.280975,279.151428 
	C235.280975,292.890839 235.280975,306.388214 235.280975,319.686981 
	C238.407471,319.686981 241.156113,319.686981 244.086578,319.686981 
	C244.086578,317.725769 244.086578,316.081024 244.086578,313.470825 
M670.915222,297.500458 
	C670.915222,304.913605 670.915222,312.326782 670.915222,319.764343 
	C674.239502,319.764343 676.987244,319.764343 680.086487,319.764343 
	C680.086487,317.241638 680.086243,314.953644 680.086487,312.665649 
	C680.086792,310.338715 680.027100,308.009918 680.100342,305.685272 
	C680.260742,300.595245 683.318604,296.883209 687.143738,297.039459 
	C690.733154,297.186066 692.745117,300.192932 692.778870,305.559296 
	C692.808716,310.304993 692.785095,315.050995 692.785095,319.747894 
	C696.152527,319.747894 698.900146,319.747894 701.890930,319.747894 
	C701.890930,312.884460 702.168884,306.257996 701.809509,299.666321 
	C701.477722,293.579651 697.455627,289.940643 691.361328,289.999878 
	C687.666687,290.035797 683.979675,290.860291 680.001038,291.367218 
	C680.001038,287.560913 680.001038,283.454651 680.001038,279.253510 
	C676.811401,279.253510 673.953064,279.253510 670.915222,279.253510 
	C670.915222,285.229248 670.915222,290.865143 670.915222,297.500458 
M561.582520,303.303894 
	C561.587891,318.896881 565.340210,321.818054 580.921082,318.387268 
	C581.486389,318.262787 582.127136,318.246674 582.688049,318.375122 
	C585.698792,319.064453 588.695374,319.815704 591.782959,320.566528 
	C591.782959,309.590302 591.782959,299.869110 591.782959,290.175140 
	C588.727539,290.175140 585.983948,290.175140 582.893188,290.175140 
	C582.893188,295.382080 583.048218,300.338959 582.845764,305.281189 
	C582.672974,309.500641 579.461182,313.189148 576.275391,312.748016 
	C572.054443,312.163513 570.772034,309.214722 570.935303,305.165955 
	C571.134155,300.231476 570.982483,295.282867 570.982483,290.184235 
	C567.663879,290.184235 564.783997,290.184235 561.582581,290.184235 
	C561.582581,294.420654 561.582581,298.388855 561.582520,303.303894 
M193.469879,307.006836 
	C196.707016,307.006836 199.944153,307.006836 203.123123,307.006836 
	C203.446747,296.912445 200.306519,291.758331 193.329254,290.174927 
	C184.193985,288.101807 175.906021,291.536346 173.030243,298.586914 
	C170.166809,305.607208 172.475296,313.998016 178.278519,317.663177 
	C185.049088,321.939301 196.070969,320.490204 201.523544,314.607025 
	C199.304459,310.785553 196.896469,310.014557 192.715927,312.588470 
	C187.735550,315.654816 182.994308,312.880371 182.037933,307.158844 
	C182.365189,307.111206 182.692291,307.023499 183.019760,307.022095 
	C186.176773,307.008698 189.333847,307.009857 193.469879,307.006836 
M441.357544,312.917999 
	C435.431061,314.636047 431.956390,312.695526 430.998810,306.898193 
	C437.987701,306.898193 444.935547,306.898193 451.842407,306.898193 
	C453.022675,298.144897 450.000031,292.517548 443.189911,290.466278 
	C434.346497,287.802521 425.252106,291.161163 422.159943,298.232849 
	C419.058075,305.326721 421.399078,314.053131 427.413544,317.736633 
	C433.775665,321.633118 446.939362,320.776093 450.545624,314.490662 
	C448.301758,311.214935 445.765320,309.221802 441.357544,312.917999 
M279.867554,290.957123 
	C272.823853,294.745209 270.236145,299.446472 270.980804,307.102264 
	C271.570740,313.167480 275.134064,317.416473 281.143127,319.220032 
	C288.725311,321.495758 296.269867,319.620789 300.503296,314.445740 
	C298.265106,311.097900 296.046631,309.874908 291.935852,312.493347 
	C286.932068,315.680573 282.437439,313.212097 280.822723,306.900513 
	C287.971100,306.900513 295.013916,306.900513 302.000336,306.900513 
	C302.714722,297.184753 299.277924,291.224091 291.982361,290.219879 
	C288.299347,289.712921 284.436523,290.512299 279.867554,290.957123 
M129.354294,299.308502 
	C126.105461,289.177765 113.401047,288.329468 105.760178,291.106934 
	C100.032974,293.188751 96.971626,298.191498 96.910110,304.762512 
	C96.849495,311.237549 99.889114,316.464630 105.530670,318.572144 
	C112.208359,321.066711 118.983475,321.115265 124.911644,316.685150 
	C130.535507,312.482452 130.985626,306.401306 129.354294,299.308502 
M528.548462,292.909821 
	C526.689026,296.275879 523.662109,299.483887 523.181152,303.036560 
	C521.497803,315.471497 532.637024,323.141510 545.863403,319.162292 
	C553.066406,316.995209 556.640564,311.652771 556.206299,303.702454 
	C555.825439,296.729645 551.349976,290.803406 544.516357,290.334106 
	C539.457458,289.986694 534.260193,291.653595 528.548462,292.909821 
M473.918854,307.490662 
	C473.918854,311.582581 473.918854,315.674469 473.918854,319.799805 
	C477.280853,319.799805 480.043304,319.799805 483.237640,319.799805 
	C483.237640,314.547211 483.237640,309.475983 483.237640,303.903503 
	C489.390930,303.903503 495.118866,303.903503 501.040741,303.903503 
	C500.926270,301.624908 500.839081,299.889862 500.733398,297.786102 
	C494.757721,297.786102 489.167175,297.786102 483.525146,297.786102 
	C483.525146,294.003235 483.525146,290.622162 483.525146,286.833496 
	C490.090546,286.833496 496.344788,286.833496 502.544495,286.833496 
	C502.544495,284.686310 502.544495,282.958496 502.544495,281.251526 
	C492.860809,281.251526 483.478912,281.251526 473.918854,281.251526 
	C473.918854,289.887878 473.918854,298.190247 473.918854,307.490662 
M639.478943,314.708038 
	C644.055969,321.064972 658.281616,322.106201 663.304565,316.451965 
	C666.762390,312.559540 665.760010,306.679169 660.973328,304.195496 
	C658.505127,302.914795 655.626526,302.431976 653.137146,301.182526 
	C651.769104,300.495819 650.824036,298.966248 649.688293,297.816681 
	C651.428284,297.330963 653.151062,296.757751 654.918274,296.410645 
	C655.478516,296.300659 656.155396,296.798981 656.781799,297.010254 
	C662.578979,298.965546 662.579163,298.964966 664.368164,293.077698 
	C659.073364,289.790649 652.010498,288.901123 646.790894,290.698395 
	C643.128479,291.959473 640.914551,294.141113 640.741516,298.240570 
	C640.565430,302.411926 642.714172,304.726959 646.347290,306.028168 
	C648.829651,306.917236 651.426270,307.538269 653.806335,308.637573 
	C654.791077,309.092407 655.343140,310.483978 656.091919,311.449615 
	C654.960144,312.257660 653.780090,313.793701 652.706543,313.722534 
	C650.457947,313.573456 648.034485,312.972839 646.101318,311.842102 
	C642.809143,309.916382 640.865479,310.426910 639.478943,314.708038 
M76.506866,319.998932 
	C78.277153,319.998932 80.047447,319.998932 82.243530,319.998932 
	C82.243530,308.713135 82.243530,297.984436 82.243530,286.767517 
	C86.553337,286.767517 90.432915,286.767517 94.246216,286.767517 
	C94.246216,284.632660 94.246216,283.005615 94.246216,280.919128 
	C84.476418,280.919128 74.858856,280.911011 65.241333,280.927734 
	C63.780437,280.930267 62.319740,281.047882 60.822536,281.113861 
	C60.822536,283.155670 60.822536,284.900604 60.822536,287.217773 
	C64.914177,287.217773 68.793480,287.217773 72.793938,287.217773 
	C72.793938,297.437653 72.828064,307.082581 72.766380,316.726929 
	C72.753380,318.760864 72.768669,320.473267 76.506866,319.998932 
M226.134674,290.913635 
	C224.190063,290.913635 222.245438,290.913635 220.178513,290.913635 
	C220.020218,287.995270 219.889587,285.586609 219.760025,283.197998 
	C216.640488,283.197998 213.889999,283.197998 210.875748,283.197998 
	C210.875748,285.771149 210.875748,288.061127 210.875748,290.458221 
	C209.305954,290.806213 207.969406,291.102478 206.790146,291.363892 
	C206.790146,293.406738 206.790146,295.033203 206.790146,296.737976 
	C208.222839,296.937805 209.462585,297.110718 210.919067,297.313873 
	C210.919067,302.384674 210.935547,307.201630 210.914200,312.018402 
	C210.894745,316.409302 213.451904,319.200104 217.342667,319.688782 
	C221.069504,320.156921 224.974869,319.203796 229.441513,318.820374 
	C228.455917,316.066437 227.922058,314.574738 227.382812,313.067993 
	C226.511261,313.017303 225.777863,312.767212 225.211868,312.974396 
	C220.468307,314.711121 219.815216,312.092499 219.953995,308.288513 
	C220.086121,304.667084 219.982452,301.037079 219.982452,296.968170 
	C222.939575,296.968170 225.511993,296.968170 229.097076,296.968170 
	C228.245804,294.506683 227.627136,292.717834 226.134674,290.913635 
M587.034119,29.266205 
	C587.013062,27.774618 587.136841,26.264112 586.944885,24.794842 
	C586.248840,19.466908 579.726562,14.130289 575.360840,15.730051 
	C571.477173,17.153166 568.106262,19.415861 567.500061,24.336000 
	C566.893616,29.258457 566.556458,34.087315 570.639954,37.611065 
	C577.401245,43.445480 585.205872,39.779591 587.034119,29.266205 
M687.344849,27.622139 
	C687.564575,29.090786 687.471313,30.699598 688.055786,32.004898 
	C691.369385,39.404255 697.067993,43.363121 703.775574,37.749607 
	C705.907532,35.965427 707.158142,32.510708 707.730408,29.607244 
	C708.976257,23.286182 704.871887,16.893135 699.463867,15.708354 
	C694.400635,14.599098 689.591736,18.572487 687.744080,25.401281 
	C687.614624,25.879713 687.543396,26.373890 687.344849,27.622139 
M517.086487,297.500397 
	C517.086487,291.407440 517.086487,285.314484 517.086487,279.139954 
	C513.803650,279.139954 511.059296,279.139954 508.271240,279.139954 
	C508.271240,292.868896 508.271240,306.367462 508.271240,319.696014 
	C511.383698,319.696014 514.134521,319.696014 517.086487,319.696014 
	C517.086487,312.425995 517.086487,305.463135 517.086487,297.500397 
M600.586792,304.499664 
	C600.586792,309.576324 600.586792,314.653015 600.586792,319.786163 
	C603.905640,319.786163 606.657837,319.786163 609.857788,319.786163 
	C609.857788,316.468658 609.657898,313.339508 609.912781,310.247833 
	C610.178406,307.026611 610.000671,303.244812 611.647217,300.811218 
	C613.242676,298.453003 616.910522,297.496918 619.633423,295.944855 
	C619.633423,294.161743 619.633423,292.100830 619.633423,288.942261 
	C613.171082,293.076141 606.866211,288.844055 600.586731,290.176117 
	C600.586731,294.875885 600.586731,299.188934 600.586792,304.499664 
M317.783722,319.144348 
	C317.808380,316.486298 317.682312,313.816101 317.895355,311.173218 
	C318.170135,307.764740 317.773468,303.791168 319.417084,301.151093 
	C320.987183,298.629028 324.802704,297.504883 327.781433,295.673920 
	C327.781433,294.208832 327.781433,292.259888 327.781433,288.749817 
	C321.331329,293.285004 314.955719,288.730743 308.914154,290.128021 
	C308.914154,300.362396 308.914154,310.074707 308.914154,319.844421 
	C311.875763,319.844421 314.512024,319.844421 317.783722,319.144348 
M633.186218,290.113098 
	C630.411011,290.113098 627.635803,290.113098 624.815186,290.113098 
	C624.815186,300.171478 624.815186,309.905182 624.815186,319.639282 
	C627.930298,319.639282 630.803345,319.639282 633.788208,319.639282 
	C633.788208,309.798706 633.788208,300.325378 633.186218,290.113098 
M337.866486,321.436981 
	C338.566681,319.778198 339.652222,318.160950 339.837189,316.446594 
	C339.969604,315.218842 339.169342,313.014404 338.304413,312.735199 
	C336.431000,312.130402 334.137390,312.087372 332.244781,312.623535 
	C331.417511,312.857910 330.802216,315.051147 330.703094,316.399872 
	C330.477936,319.463379 330.632141,322.554749 330.632141,325.748291 
	C333.877502,326.887939 336.344452,325.860229 337.866486,321.436981 
M632.268127,285.248413 
	C632.625122,284.913300 633.299622,284.566528 633.287781,284.244995 
	C633.210266,282.133789 633.752075,279.149689 632.607239,278.149353 
	C631.264587,276.976166 628.049988,276.767334 626.335266,277.584259 
	C625.047546,278.197815 623.809998,281.606049 624.422729,282.840393 
	C625.193054,284.392059 627.840332,285.066742 629.752563,285.959473 
	C630.251343,286.192322 631.028137,285.829620 632.268127,285.248413 
M368.032349,212.183517 
	C368.017914,211.942398 368.003479,211.701294 367.989014,211.460175 
	C367.749176,211.491898 367.509369,211.523605 367.269531,211.555328 
	C367.381683,211.906860 367.493835,212.258392 368.032349,212.183517 
M364.482941,210.588028 
	C364.482941,210.588028 364.416382,210.476547 364.482941,210.588028 
z"/>
<path fill="#AEB141" opacity="1.000000" stroke="none" 
	d="
M393.178314,122.434570 
	C389.532349,126.066765 389.749573,130.669235 389.829620,135.298798 
	C389.930328,141.124603 389.905670,146.954468 389.824646,152.781036 
	C389.734955,159.228729 391.106323,164.712418 398.207520,166.885406 
	C398.645691,167.019470 398.868195,167.858414 399.649811,169.095551 
	C388.173279,169.095551 377.389435,169.095551 365.758789,169.095551 
	C366.761902,167.754944 367.062622,166.906998 367.512054,166.819061 
	C374.616791,165.428741 374.619873,159.721695 374.636536,154.506271 
	C374.751465,118.541702 374.743835,82.576370 374.616882,46.611847 
	C374.597992,41.257488 374.809204,35.330250 367.513672,33.731911 
	C367.067291,33.634117 366.791748,32.756447 366.081543,31.726559 
	C373.906250,29.460196 381.368347,27.298861 389.509766,24.940775 
	C389.623993,26.772728 389.860229,28.813274 389.862030,30.854029 
	C389.886566,58.493671 389.869110,86.133362 389.902985,113.772980 
	C389.904907,115.350716 390.259644,116.928146 390.468933,118.503235 
	C390.470581,118.515724 390.745209,118.525627 390.871216,118.479240 
	C391.023468,118.423210 391.153168,118.305771 391.814209,118.477768 
	C392.616638,119.971939 392.897461,121.203255 393.178314,122.434570 
z"/>
<path fill="#0C89D7" opacity="1.000000" stroke="none" 
	d="
M638.888123,65.305222 
	C638.848633,91.893394 638.479248,118.487762 638.978516,145.065826 
	C639.121033,152.656723 641.889221,160.132431 650.665405,163.840012 
	C649.603027,165.932220 648.284546,167.523315 646.818909,168.964966 
	C646.008179,169.762482 644.951294,170.309662 644.005310,170.969681 
	C632.566406,169.287354 624.086975,159.041000 624.015625,146.250793 
	C623.878113,121.612160 623.962097,96.972282 623.954407,72.332924 
	C623.953735,70.203293 623.954285,68.073654 623.954285,65.428947 
	C619.338562,65.428947 615.240967,65.428947 611.143372,65.428947 
	C610.862488,64.861305 610.581543,64.293655 610.300598,63.726009 
	C611.590698,62.824333 612.760437,61.500309 614.191223,61.092693 
	C621.084167,59.129040 627.074219,55.982113 631.389832,49.279381 
	C634.022827,49.291855 636.181946,49.651798 638.341003,50.011742 
	C638.516724,53.250336 638.692444,56.488926 638.892395,60.174938 
	C640.316528,60.321529 641.714722,60.465450 643.650513,61.035995 
	C643.709656,62.301548 643.427795,63.448479 642.707397,63.908157 
	C641.591492,64.620224 640.176392,64.863304 638.888123,65.305222 
z"/>
<path fill="#0C97C6" opacity="1.000000" stroke="none" 
	d="
M566.992554,62.101856 
	C570.492920,61.403854 573.611816,60.882629 576.640442,60.037540 
	C579.465149,59.249329 582.193848,58.116859 585.662476,56.888931 
	C585.782532,59.052750 585.960083,60.770695 585.960876,62.488716 
	C585.974304,91.941330 585.964050,121.393951 585.966248,150.846573 
	C585.966370,152.675934 585.876404,154.522903 586.088379,156.331207 
	C586.628357,160.938370 586.869141,165.804214 593.136963,166.574768 
	C593.604675,166.632263 593.934937,167.807556 594.741699,169.149521 
	C583.221069,169.149521 572.355347,169.149521 560.894470,169.149521 
	C561.589233,167.912521 561.806824,166.977570 562.209473,166.889572 
	C569.289856,165.342285 570.618835,159.679886 570.675598,153.957550 
	C570.923096,128.999939 570.979248,104.037003 570.712097,79.080208 
	C570.648560,73.139908 569.443298,66.984886 561.948853,65.280701 
	C561.659119,65.214813 561.524414,64.467262 560.953735,63.281662 
	C563.011169,62.862564 564.791504,62.499928 566.992554,62.101856 
z"/>
<path fill="#F1AD2D" opacity="1.000000" stroke="none" 
	d="
M318.001465,104.036728 
	C318.434387,102.704208 319.282745,101.355721 319.232239,100.041794 
	C318.920929,91.944061 318.826874,83.800819 317.808929,75.780815 
	C317.157166,70.646049 309.544617,62.249660 300.846527,61.932705 
	C297.543884,61.812351 294.227234,62.075859 290.450317,61.822197 
	C289.299683,60.277691 288.615723,59.075405 287.931763,57.873116 
	C299.774017,55.589249 311.554657,55.293118 321.959259,62.325607 
	C330.761261,68.274887 333.684875,77.812737 333.938782,87.874863 
	C334.442688,107.842384 334.278564,127.826126 334.673889,147.797546 
	C334.754028,151.848740 335.634003,156.041702 337.035126,159.841141 
	C337.711945,161.676407 340.453369,162.750336 342.642120,164.535706 
	C343.697113,165.955353 344.369965,167.008270 345.042816,168.061188 
	C336.578339,173.959503 327.586914,171.500916 323.623840,162.187744 
	C322.716095,160.054626 321.880280,157.890915 321.391235,155.318451 
	C325.167572,153.328842 324.051758,150.651489 323.410706,148.121063 
	C322.634613,145.057556 321.226959,142.029739 321.109222,138.947632 
	C320.787079,130.517487 321.081085,122.065407 320.923737,113.625885 
	C320.894745,112.071663 319.892975,110.535583 319.105042,108.855759 
	C318.576019,108.511215 318.282166,108.302063 317.989624,107.687157 
	C317.994446,106.199844 317.997955,105.118286 318.001465,104.036728 
z"/>
<path fill="#2FAAA1" opacity="1.000000" stroke="none" 
	d="
M485.980316,169.445786 
	C481.020966,169.445786 476.061584,169.445786 470.454590,169.445786 
	C471.279785,167.887589 471.425903,167.182983 471.724335,167.111206 
	C478.350616,165.516937 480.443176,161.180145 480.367950,154.631363 
	C480.047760,126.750206 480.025848,98.865608 480.193298,70.371010 
	C482.642365,66.461647 484.793182,63.163544 486.944000,59.865440 
	C489.317352,58.874001 491.690704,57.882557 495.033295,56.486233 
	C495.033295,64.505760 495.033295,71.785576 495.006409,79.951370 
	C495.403900,82.601089 495.828278,84.364822 496.252655,86.128555 
	C495.849243,88.496078 495.445831,90.863594 494.568970,93.718269 
	C493.732056,94.891983 493.053223,95.577530 493.051056,96.265213 
	C492.991364,115.191010 492.972473,134.117188 493.078339,153.042557 
	C493.083862,154.027084 494.250610,155.005127 494.876709,155.986176 
	C495.276520,157.709045 495.676361,159.431885 495.862427,161.715240 
	C493.463715,165.370071 491.908112,169.365509 486.845428,168.340591 
	C486.640045,168.299026 486.272369,169.059158 485.980316,169.445786 
z"/>
<path fill="#080507" opacity="1.000000" stroke="none" 
	d="
M408.378052,284.154938 
	C408.771515,280.664337 410.974030,280.805084 413.211365,280.891846 
	C415.021820,280.962097 416.837158,280.906097 419.145691,280.906097 
	C414.612335,294.202118 410.236816,307.035187 405.853424,319.891449 
	C402.598633,319.891449 399.616302,319.891449 396.187653,319.891449 
	C393.684418,311.835571 391.156708,303.700836 388.628967,295.566101 
	C388.303223,295.536041 387.977448,295.506012 387.651672,295.475983 
	C385.084778,303.582764 382.517853,311.689545 379.927185,319.871338 
	C376.788696,319.871338 373.814850,319.871338 370.357025,319.871338 
	C366.028839,307.147919 361.664734,294.318817 357.309937,281.517151 
	C357.858673,281.248535 358.135773,281.001434 358.423676,280.988129 
	C367.036407,280.591156 367.046082,280.591919 369.521362,288.669952 
	C371.320038,294.539917 373.087891,300.419342 374.882111,306.290710 
	C374.924042,306.427948 375.116577,306.519165 375.747467,307.100464 
	C378.411957,298.274200 380.993591,289.722443 383.603729,281.076263 
	C386.762146,281.076263 389.727142,281.076263 392.945923,281.076263 
	C395.596588,289.746704 398.241455,298.398285 401.279083,308.334503 
	C403.886627,299.454834 406.074585,292.004028 408.378052,284.154938 
z"/>
<path fill="#6764B8" opacity="1.000000" stroke="none" 
	d="
M706.298218,85.998611 
	C706.436462,92.312164 706.672668,98.625404 706.693542,104.939339 
	C706.744751,120.434944 706.680664,135.930908 706.705811,151.426636 
	C706.709595,153.752640 706.738098,156.112183 707.114319,158.397095 
	C707.920898,163.296478 709.945862,167.197327 716.258179,168.063965 
	C715.405334,168.620117 714.557556,169.650711 713.698792,169.659851 
	C703.869690,169.764496 694.038574,169.742874 684.209045,169.650238 
	C683.401367,169.642624 682.600952,168.870117 681.797119,168.453003 
	C682.358948,167.795929 682.791687,166.818100 683.502808,166.531799 
	C690.043945,163.898285 692.052368,161.308762 692.149109,154.339798 
	C692.322449,141.846466 692.342834,129.351013 692.926758,116.394836 
	C694.134155,114.912834 695.231506,113.980164 695.484375,112.857292 
	C696.781250,107.099152 697.701050,101.253967 699.069763,95.514839 
	C700.054199,91.386810 699.937500,86.152473 706.298218,85.998611 
z"/>
<path fill="#F9A62F" opacity="1.000000" stroke="none" 
	d="
M299.970917,169.540222 
	C289.458710,173.257385 279.097015,172.736282 270.076233,166.197144 
	C265.992371,163.236786 262.915924,158.941330 261.609070,152.930954 
	C259.722137,144.252670 260.569580,135.942368 262.311218,127.826691 
	C263.286926,123.280090 266.744904,118.309120 270.550415,115.554802 
	C276.038635,111.582573 282.859497,109.451515 289.501709,106.890984 
	C289.263580,109.173866 288.635376,111.100555 287.763794,113.255707 
	C285.034698,115.841408 282.263062,117.965462 280.115387,120.598457 
	C272.903381,129.440262 273.860016,139.975388 275.384644,150.078827 
	C277.198364,162.097839 294.440430,168.945297 304.519043,161.958649 
	C309.028198,158.832809 312.853760,154.720901 317.361755,151.403900 
	C317.984436,151.980484 318.234863,152.209625 318.485291,152.438782 
	C315.507538,159.939194 310.294189,165.179916 302.061920,168.026093 
	C300.925690,168.524780 300.448303,169.032501 299.970917,169.540222 
z"/>
<path fill="#070406" opacity="1.000000" stroke="none" 
	d="
M165.982925,292.226685 
	C165.985626,299.530457 165.650772,306.375214 166.054916,313.176056 
	C166.927139,327.854034 157.708969,332.155518 145.391113,330.804047 
	C142.206238,330.454590 139.153732,328.898560 135.793503,327.817352 
	C137.161392,323.144958 138.530212,321.072418 143.538177,323.469574 
	C150.526459,326.814636 155.216492,324.289246 156.460388,317.459808 
	C154.042770,317.982269 151.692612,318.740723 149.293289,318.959259 
	C143.330124,319.502350 138.222382,317.581329 135.567307,311.998596 
	C132.766449,306.109283 132.802063,299.990723 136.933823,294.547272 
	C140.915604,289.301483 146.637527,289.669189 152.409241,290.094696 
	C155.661194,290.334412 158.966278,289.812317 162.226822,289.996979 
	C163.506958,290.069489 164.730865,291.134674 165.982925,292.226685 
M155.973572,300.738129 
	C154.096695,297.498505 151.808014,294.946625 147.596695,296.613892 
	C143.583618,298.202667 141.719406,302.486481 143.069580,307.024658 
	C144.114426,310.536621 146.500259,312.864349 150.274139,312.734650 
	C153.865311,312.611267 156.796921,308.347748 156.760117,303.882233 
	C156.753510,303.079468 156.378387,302.279785 155.973572,300.738129 
z"/>
<path fill="#FB863C" opacity="1.000000" stroke="none" 
	d="
M118.014793,56.942123 
	C128.626389,57.585529 136.921890,62.436810 143.001556,71.024002 
	C150.637955,81.810028 155.038925,93.729515 154.573700,107.557968 
	C149.924011,111.613029 144.854874,111.091484 139.749069,110.613174 
	C138.473938,103.696884 137.402451,97.147232 136.157959,90.630608 
	C133.501984,76.722946 126.315903,66.705688 112.006477,62.529961 
	C111.143158,57.089142 116.147873,58.831612 118.014793,56.942123 
z"/>
<path fill="#706F6F" opacity="1.000000" stroke="none" 
	d="
M256.999908,231.254089 
	C191.516769,231.265152 126.533653,231.276810 61.550545,231.288681 
	C60.384178,231.288895 59.163456,231.507690 58.066925,231.231766 
	C56.997173,230.962555 56.054337,230.188995 55.055794,229.636841 
	C55.980591,229.013901 56.833408,228.183121 57.851803,227.830429 
	C58.748066,227.520020 59.829521,227.734192 60.829201,227.733978 
	C155.471542,227.713379 250.113876,227.686111 344.756165,227.755173 
	C346.161407,227.756195 347.565765,228.955276 348.970551,229.595230 
	C347.472534,230.147217 345.976074,231.175735 344.476227,231.180710 
	C315.484375,231.277008 286.492126,231.253525 256.999908,231.254089 
z"/>
<path fill="#706F6F" opacity="1.000000" stroke="none" 
	d="
M545.000000,227.669998 
	C600.144531,227.677170 654.789001,227.681305 709.433533,227.685623 
	C710.766296,227.685730 712.166748,227.435776 713.410522,227.769104 
	C714.408020,228.036407 715.215576,229.012634 716.107422,229.674240 
	C715.246704,230.208221 714.436340,231.059753 713.514099,231.206192 
	C711.887817,231.464432 710.193359,231.299713 708.527405,231.299622 
	C615.398743,231.295105 522.270020,231.289337 429.141357,231.283585 
	C428.308380,231.283524 427.367737,231.528305 426.668213,231.222366 
	C425.673706,230.787415 424.856476,229.947174 423.963501,229.280090 
	C424.824707,228.756088 425.632172,228.072510 426.564148,227.758392 
	C427.313202,227.505905 428.213104,227.697830 429.046051,227.697601 
	C467.530701,227.687057 506.015350,227.677048 545.000000,227.669998 
z"/>
<path fill="#FB7E42" opacity="1.000000" stroke="none" 
	d="
M117.666092,56.761482 
	C116.147873,58.831612 111.143158,57.089142 111.567238,62.549049 
	C94.780640,61.754711 83.053772,74.846153 80.140961,90.003494 
	C70.512230,94.286865 70.362434,94.251213 66.735954,86.910370 
	C66.678566,84.418045 66.664856,81.923798 66.555634,79.433746 
	C66.223518,71.862106 63.806976,65.787422 54.790642,64.542450 
	C54.893005,64.059616 54.995373,63.576790 55.097740,63.093960 
	C63.324421,61.268723 71.551109,59.443481 80.401085,57.479954 
	C80.401085,63.405869 80.401085,69.446312 80.401085,75.486748 
	C80.743652,75.730415 81.086220,75.974091 81.428795,76.217758 
	C89.544472,62.287521 101.161682,55.078403 117.666092,56.761482 
z"/>
<path fill="#FA9335" opacity="1.000000" stroke="none" 
	d="
M184.323578,104.090530 
	C184.221710,95.952072 184.157166,87.812920 184.006073,79.675377 
	C183.887589,73.293198 184.056915,66.701172 175.735382,64.838463 
	C175.417831,64.767380 175.168732,64.112587 175.015488,63.684109 
	C174.914764,63.402515 175.043869,63.038715 175.062408,62.807209 
	C182.443146,61.049347 189.785400,59.300648 197.611603,57.877541 
	C198.321533,58.457458 198.547531,58.711773 198.773544,58.966087 
	C198.853027,65.335625 198.932510,71.705162 198.754028,78.719337 
	C198.438858,80.004906 198.381683,80.645836 198.324493,81.286766 
	C198.575577,81.337326 198.826675,81.387878 199.077759,81.438438 
	C199.371475,80.601746 199.665192,79.765053 199.958893,78.928360 
	C199.958893,78.928360 200.005142,78.979721 200.401215,78.983032 
	C201.944656,79.012344 203.092010,79.038345 204.239365,79.064346 
	C199.539368,85.805038 198.248627,93.359406 198.380707,101.735001 
	C193.609146,104.575806 189.114212,105.332512 184.323578,104.090530 
z"/>
<path fill="#040107" opacity="1.000000" stroke="none" 
	d="
M244.086578,313.953552 
	C244.086578,316.081024 244.086578,317.725769 244.086578,319.686981 
	C241.156113,319.686981 238.407471,319.686981 235.280975,319.686981 
	C235.280975,306.388214 235.280975,292.890839 235.280975,279.151428 
	C238.035324,279.151428 240.779938,279.151428 243.898682,279.151428 
	C243.898682,283.281158 243.898682,287.371033 243.898682,291.440155 
	C247.725037,290.896973 251.182541,290.048645 254.653763,289.988190 
	C261.779449,289.864075 265.733612,293.767487 265.941162,300.949707 
	C266.118225,307.077271 265.977783,313.214020 265.977783,319.674957 
	C262.917419,319.674957 260.049957,319.674957 256.784851,319.674957 
	C256.784851,314.647522 256.769836,309.703705 256.789673,304.760071 
	C256.805237,300.878448 255.539261,297.775299 251.330841,297.094391 
	C247.871979,296.534698 244.466705,300.109741 244.158295,304.497284 
	C243.948959,307.475433 244.097885,310.478760 244.086578,313.953552 
z"/>
<path fill="#040107" opacity="1.000000" stroke="none" 
	d="
M670.915222,297.000732 
	C670.915222,290.865143 670.915222,285.229248 670.915222,279.253510 
	C673.953064,279.253510 676.811401,279.253510 680.001038,279.253510 
	C680.001038,283.454651 680.001038,287.560913 680.001038,291.367218 
	C683.979675,290.860291 687.666687,290.035797 691.361328,289.999878 
	C697.455627,289.940643 701.477722,293.579651 701.809509,299.666321 
	C702.168884,306.257996 701.890930,312.884460 701.890930,319.747894 
	C698.900146,319.747894 696.152527,319.747894 692.785095,319.747894 
	C692.785095,315.050995 692.808716,310.304993 692.778870,305.559296 
	C692.745117,300.192932 690.733154,297.186066 687.143738,297.039459 
	C683.318604,296.883209 680.260742,300.595245 680.100342,305.685272 
	C680.027100,308.009918 680.086792,310.338715 680.086487,312.665649 
	C680.086243,314.953644 680.086487,317.241638 680.086487,319.764343 
	C676.987244,319.764343 674.239502,319.764343 670.915222,319.764343 
	C670.915222,312.326782 670.915222,304.913605 670.915222,297.000732 
z"/>
<path fill="#FA7A3E" opacity="1.000000" stroke="none" 
	d="
M198.792313,131.010910 
	C198.866669,139.169769 198.939056,147.328644 199.015976,155.487488 
	C199.081253,162.411560 200.184479,163.941910 206.764740,166.492569 
	C207.575439,166.806824 208.263535,167.437424 208.802032,168.988983 
	C197.536972,168.988983 186.271927,168.988983 174.593445,168.988983 
	C175.008408,168.009140 175.176102,167.004303 175.492508,166.955063 
	C183.551056,165.700989 183.903992,159.506577 183.990189,153.425430 
	C184.157822,141.600357 184.055862,129.771469 184.526520,117.594482 
	C185.326263,121.253067 185.423660,125.303383 186.111557,129.250809 
	C186.428452,131.069336 187.525146,133.534256 188.950928,134.166443 
	C190.507431,134.856598 192.922546,133.982376 194.833481,133.378754 
	C196.260071,132.928146 197.480225,131.824020 198.792313,131.010910 
z"/>
<path fill="#F55D5F" opacity="1.000000" stroke="none" 
	d="
M130.230743,166.718643 
	C115.684669,176.205902 100.077797,173.477661 81.170273,157.896744 
	C80.982124,159.180450 80.829247,160.223495 80.180832,161.634857 
	C77.196510,163.095520 74.694038,164.157928 72.223412,165.289886 
	C70.357491,166.144775 68.532295,167.088547 66.688980,167.992767 
	C66.596535,165.604172 66.504097,163.215561 66.765091,160.329773 
	C66.977409,159.230759 66.836273,158.628922 66.695145,158.027100 
	C66.641403,150.936203 66.587669,143.845322 66.940735,136.526123 
	C68.403564,137.521683 69.672089,139.924683 70.481262,139.778854 
	C75.906052,138.801193 78.465027,141.850159 80.622726,146.380096 
	C81.123932,147.724182 81.490791,148.699554 81.505905,149.818085 
	C81.852470,150.605835 82.550781,151.250473 83.498825,152.120392 
	C88.609703,161.498413 96.807167,166.012863 106.578026,166.701752 
	C113.713608,167.204819 120.224007,163.837418 126.070892,159.042099 
	C127.710472,161.627380 128.970612,164.173004 130.230743,166.718643 
z"/>
<path fill="#F35260" opacity="1.000000" stroke="none" 
	d="
M66.551697,168.443909 
	C68.532295,167.088547 70.357491,166.144775 72.223412,165.289886 
	C74.694038,164.157928 77.196510,163.095520 80.042641,162.000000 
	C80.254707,172.124649 81.279350,182.444031 79.660782,192.330673 
	C77.743225,204.043610 71.531799,211.430252 58.771408,212.824554 
	C57.581631,212.954559 56.276611,212.029892 55.025101,211.594910 
	C55.969604,210.878143 56.872135,210.096359 57.865479,209.455276 
	C63.911972,205.553101 65.538040,199.279617 66.003891,192.852524 
	C66.580421,184.898560 66.315697,176.883652 66.551697,168.443909 
z"/>
<path fill="#5862B8" opacity="1.000000" stroke="none" 
	d="
M706.437500,85.548584 
	C699.937500,86.152473 700.054199,91.386810 699.069763,95.514839 
	C697.701050,101.253967 696.781250,107.099152 695.484375,112.857292 
	C695.231506,113.980164 694.134155,114.912834 693.025269,115.985306 
	C692.438293,103.424904 692.213989,90.812828 692.083069,78.199799 
	C692.018188,71.950867 689.507385,68.100662 683.792725,65.633400 
	C683.071655,65.322113 682.614136,64.400581 682.034485,63.761745 
	C682.636780,63.307964 683.183289,62.577572 683.850098,62.442917 
	C691.126892,60.973454 698.422546,59.597149 706.576721,58.029457 
	C706.576721,66.743034 706.576721,75.920792 706.437500,85.548584 
z"/>
<path fill="#040107" opacity="1.000000" stroke="none" 
	d="
M561.582520,302.830475 
	C561.582581,298.388855 561.582581,294.420654 561.582581,290.184235 
	C564.783997,290.184235 567.663879,290.184235 570.982483,290.184235 
	C570.982483,295.282867 571.134155,300.231476 570.935303,305.165955 
	C570.772034,309.214722 572.054443,312.163513 576.275391,312.748016 
	C579.461182,313.189148 582.672974,309.500641 582.845764,305.281189 
	C583.048218,300.338959 582.893188,295.382080 582.893188,290.175140 
	C585.983948,290.175140 588.727539,290.175140 591.782959,290.175140 
	C591.782959,299.869110 591.782959,309.590302 591.782959,320.566528 
	C588.695374,319.815704 585.698792,319.064453 582.688049,318.375122 
	C582.127136,318.246674 581.486389,318.262787 580.921082,318.387268 
	C565.340210,321.818054 561.587891,318.896881 561.582520,302.830475 
z"/>
<path fill="#050406" opacity="1.000000" stroke="none" 
	d="
M192.980392,307.006836 
	C189.333847,307.009857 186.176773,307.008698 183.019760,307.022095 
	C182.692291,307.023499 182.365189,307.111206 182.038239,307.160919 
	C182.994308,312.880371 187.735550,315.654816 192.715927,312.588470 
	C196.896469,310.014557 199.304459,310.785553 201.523544,314.607056 
	C196.070969,320.490204 185.049088,321.939301 178.278519,317.663177 
	C172.475296,313.998016 170.166809,305.607208 173.030243,298.586914 
	C175.906021,291.536346 184.193985,288.101807 193.329254,290.174927 
	C200.306519,291.758331 203.446747,296.912445 203.123123,307.006836 
	C199.944153,307.006836 196.707016,307.006836 192.980392,307.006836 
M191.928833,301.949677 
	C192.816391,301.878754 193.703964,301.807800 194.865494,301.714966 
	C193.759689,297.436218 191.123093,295.695618 187.509644,296.107391 
	C184.420029,296.459473 181.739319,297.967926 181.422180,301.949921 
	C184.826309,301.949921 187.945374,301.949921 191.928833,301.949677 
z"/>
<path fill="#050406" opacity="1.000000" stroke="none" 
	d="
M441.716492,312.770050 
	C445.765320,309.221802 448.301758,311.214935 450.545624,314.490662 
	C446.939362,320.776093 433.775665,321.633118 427.413544,317.736633 
	C421.399078,314.053131 419.058075,305.326721 422.159943,298.232849 
	C425.252106,291.161163 434.346497,287.802521 443.189911,290.466278 
	C450.000031,292.517548 453.022675,298.144897 451.842407,306.898193 
	C444.935547,306.898193 437.987701,306.898193 430.998810,306.898193 
	C431.956390,312.695526 435.431061,314.636047 441.716492,312.770050 
M436.556763,301.949951 
	C438.909454,301.949951 441.262146,301.949951 443.614838,301.949951 
	C443.843292,301.276703 444.071747,300.603455 444.300201,299.930206 
	C441.846161,298.617004 439.363556,296.227386 436.946014,296.291473 
	C434.496979,296.356354 432.112244,298.847290 429.699341,300.275604 
	C429.956604,300.833710 430.213867,301.391846 430.471130,301.949951 
	C432.205597,301.949951 433.940094,301.949951 436.556763,301.949951 
z"/>
<path fill="#050406" opacity="1.000000" stroke="none" 
	d="
M280.261292,290.839050 
	C284.436523,290.512299 288.299347,289.712921 291.982361,290.219879 
	C299.277924,291.224091 302.714722,297.184753 302.000336,306.900513 
	C295.013916,306.900513 287.971100,306.900513 280.822723,306.900513 
	C282.437439,313.212097 286.932068,315.680573 291.935852,312.493347 
	C296.046631,309.874908 298.265106,311.097900 300.503296,314.445740 
	C296.269867,319.620789 288.725311,321.495758 281.143127,319.220032 
	C275.134064,317.416473 271.570740,313.167480 270.980804,307.102264 
	C270.236145,299.446472 272.823853,294.745209 280.261292,290.839050 
M290.072540,301.949921 
	C291.261627,301.838013 292.450684,301.726074 293.639771,301.614166 
	C293.855957,301.030945 294.072174,300.447723 294.288361,299.864502 
	C291.814392,298.573730 289.304504,296.211578 286.876495,296.292877 
	C284.440155,296.374481 282.085419,298.892242 279.694916,300.342316 
	C279.959045,300.878204 280.223206,301.414062 280.487335,301.949951 
	C283.391205,301.949951 286.295044,301.949951 290.072540,301.949921 
z"/>
<path fill="#070406" opacity="1.000000" stroke="none" 
	d="
M129.509628,299.658813 
	C130.985626,306.401306 130.535507,312.482452 124.911644,316.685150 
	C118.983475,321.115265 112.208359,321.066711 105.530670,318.572144 
	C99.889114,316.464630 96.849495,311.237549 96.910110,304.762512 
	C96.971626,298.191498 100.032974,293.188751 105.760178,291.106934 
	C113.401047,288.329468 126.105461,289.177765 129.509628,299.658813 
M111.309334,296.554443 
	C109.637558,298.496674 107.315804,300.183838 106.432198,302.435394 
	C104.705963,306.834045 107.409874,311.769470 111.697975,313.331482 
	C114.942596,314.513367 118.821571,312.476379 120.415588,308.753540 
	C123.151512,302.363800 119.104752,296.329803 111.309334,296.554443 
z"/>
<path fill="#070406" opacity="1.000000" stroke="none" 
	d="
M528.836548,292.666473 
	C534.260193,291.653595 539.457458,289.986694 544.516357,290.334106 
	C551.349976,290.803406 555.825439,296.729645 556.206299,303.702454 
	C556.640564,311.652771 553.066406,316.995209 545.863403,319.162292 
	C532.637024,323.141510 521.497803,315.471497 523.181152,303.036560 
	C523.662109,299.483887 526.689026,296.275879 528.836548,292.666473 
M543.140564,297.190125 
	C539.476562,294.967590 536.375610,296.048767 533.997437,299.152527 
	C531.303223,302.668793 531.176270,306.612366 533.709473,310.240021 
	C535.582031,312.921661 538.114807,314.766724 541.765625,313.237488 
	C545.887207,311.511078 547.556763,308.186798 546.899780,304.082214 
	C546.539551,301.831543 544.847168,299.794037 543.140564,297.190125 
z"/>
<path fill="#040103" opacity="1.000000" stroke="none" 
	d="
M473.918854,306.991638 
	C473.918854,298.190247 473.918854,289.887878 473.918854,281.251526 
	C483.478912,281.251526 492.860809,281.251526 502.544495,281.251526 
	C502.544495,282.958496 502.544495,284.686310 502.544495,286.833496 
	C496.344788,286.833496 490.090546,286.833496 483.525146,286.833496 
	C483.525146,290.622162 483.525146,294.003235 483.525146,297.786102 
	C489.167175,297.786102 494.757721,297.786102 500.733398,297.786102 
	C500.839081,299.889862 500.926270,301.624908 501.040741,303.903503 
	C495.118866,303.903503 489.390930,303.903503 483.237640,303.903503 
	C483.237640,309.475983 483.237640,314.547211 483.237640,319.799805 
	C480.043304,319.799805 477.280853,319.799805 473.918854,319.799805 
	C473.918854,315.674469 473.918854,311.582581 473.918854,306.991638 
z"/>
<path fill="#080507" opacity="1.000000" stroke="none" 
	d="
M639.632324,314.394318 
	C640.865479,310.426910 642.809143,309.916382 646.101318,311.842102 
	C648.034485,312.972839 650.457947,313.573456 652.706543,313.722534 
	C653.780090,313.793701 654.960144,312.257660 656.091919,311.449585 
	C655.343140,310.483978 654.791077,309.092407 653.806335,308.637573 
	C651.426270,307.538269 648.829651,306.917236 646.347290,306.028168 
	C642.714172,304.726959 640.565430,302.411926 640.741516,298.240570 
	C640.914551,294.141113 643.128479,291.959473 646.790894,290.698395 
	C652.010498,288.901123 659.073364,289.790649 664.368164,293.077698 
	C662.579163,298.964966 662.578979,298.965546 656.781799,297.010254 
	C656.155396,296.798981 655.478516,296.300659 654.918274,296.410645 
	C653.151062,296.757751 651.428284,297.330963 649.688293,297.816681 
	C650.824036,298.966248 651.769104,300.495819 653.137146,301.182526 
	C655.626526,302.431976 658.505127,302.914795 660.973328,304.195496 
	C665.760010,306.679169 666.762390,312.559540 663.304565,316.451965 
	C658.281616,322.106201 644.055969,321.064972 639.632324,314.394318 
z"/>
<path fill="#FA9E33" opacity="1.000000" stroke="none" 
	d="
M204.499207,78.823105 
	C203.092010,79.038345 201.944656,79.012344 200.367432,78.975861 
	C204.586929,70.961395 208.732101,62.708679 217.951508,58.498459 
	C225.777802,54.924423 236.347473,56.033180 241.420700,61.872654 
	C245.271942,66.305595 244.902008,75.621872 240.775665,79.760620 
	C238.114227,82.430054 236.453400,82.720177 234.726273,78.595436 
	C230.326767,68.088577 223.016525,64.225548 214.237747,68.144379 
	C209.912399,70.075203 205.507874,72.930183 204.499207,78.823105 
z"/>
<path fill="#000004" opacity="1.000000" stroke="none" 
	d="
M76.026657,319.998779 
	C72.768669,320.473267 72.753380,318.760864 72.766380,316.726929 
	C72.828064,307.082581 72.793938,297.437653 72.793938,287.217773 
	C68.793480,287.217773 64.914177,287.217773 60.822536,287.217773 
	C60.822536,284.900604 60.822536,283.155670 60.822536,281.113861 
	C62.319740,281.047882 63.780437,280.930267 65.241333,280.927734 
	C74.858856,280.911011 84.476418,280.919128 94.246216,280.919128 
	C94.246216,283.005615 94.246216,284.632660 94.246216,286.767517 
	C90.432915,286.767517 86.553337,286.767517 82.243530,286.767517 
	C82.243530,297.984436 82.243530,308.713135 82.243530,319.998932 
	C80.047447,319.998932 78.277153,319.998932 76.026657,319.998779 
z"/>
<path fill="#1CA9B5" opacity="1.000000" stroke="none" 
	d="
M504.703186,66.510178 
	C511.465485,57.085674 524.840820,54.488785 532.015564,57.678734 
	C542.108337,62.166065 542.906921,72.119408 536.898621,80.311226 
	C536.204224,81.257996 533.992737,81.960899 532.955933,81.559547 
	C531.760986,81.096992 530.623840,79.404503 530.264954,78.035507 
	C527.625671,67.969101 519.340210,64.154106 509.134705,68.923676 
	C507.160431,68.191856 505.931793,67.351013 504.703186,66.510178 
z"/>
<path fill="#040107" opacity="1.000000" stroke="none" 
	d="
M226.571564,290.921295 
	C227.627136,292.717834 228.245804,294.506683 229.097076,296.968170 
	C225.511993,296.968170 222.939575,296.968170 219.982452,296.968170 
	C219.982452,301.037079 220.086121,304.667084 219.953995,308.288513 
	C219.815216,312.092499 220.468307,314.711121 225.211868,312.974396 
	C225.777863,312.767212 226.511261,313.017303 227.382812,313.067993 
	C227.922058,314.574738 228.455917,316.066437 229.441513,318.820374 
	C224.974869,319.203796 221.069504,320.156921 217.342667,319.688782 
	C213.451904,319.200104 210.894745,316.409302 210.914200,312.018402 
	C210.935547,307.201630 210.919067,302.384674 210.919067,297.313873 
	C209.462585,297.110718 208.222839,296.937805 206.790146,296.737976 
	C206.790146,295.033203 206.790146,293.406738 206.790146,291.363892 
	C207.969406,291.102478 209.305954,290.806213 210.875748,290.458221 
	C210.875748,288.061127 210.875748,285.771149 210.875748,283.197998 
	C213.889999,283.197998 216.640488,283.197998 219.760025,283.197998 
	C219.889587,285.586609 220.020218,287.995270 220.178513,290.913635 
	C222.245438,290.913635 224.190063,290.913635 226.571564,290.921295 
z"/>
<path fill="#96B050" opacity="1.000000" stroke="none" 
	d="
M393.489655,122.286835 
	C392.897461,121.203255 392.616638,119.971939 392.183990,118.393295 
	C402.133057,106.410118 412.233887,94.774261 422.660797,83.364502 
	C423.343842,84.764290 423.700867,85.937996 424.057892,87.111702 
	C421.456116,90.714378 419.247528,94.702530 416.171478,97.840240 
	C409.583405,104.560287 407.370514,103.299988 415.482971,114.001999 
	C413.552307,119.758728 411.745728,124.953491 409.939178,130.148254 
	C406.570709,125.577835 403.202240,121.007423 399.336273,115.762016 
	C397.389404,118.004959 395.595184,120.072029 393.489655,122.286835 
z"/>
<path fill="#0C97C6" opacity="1.000000" stroke="none" 
	d="
M587.030884,29.688873 
	C585.205872,39.779591 577.401245,43.445480 570.639954,37.611065 
	C566.556458,34.087315 566.893616,29.258457 567.500061,24.336000 
	C568.106262,19.415861 571.477173,17.153166 575.360840,15.730051 
	C579.726562,14.130289 586.248840,19.466908 586.944885,24.794842 
	C587.136841,26.264112 587.013062,27.774618 587.030884,29.688873 
z"/>
<path fill="#5862B8" opacity="1.000000" stroke="none" 
	d="
M687.394958,27.241440 
	C687.543396,26.373890 687.614624,25.879713 687.744080,25.401281 
	C689.591736,18.572487 694.400635,14.599098 699.463867,15.708354 
	C704.871887,16.893135 708.976257,23.286182 707.730408,29.607244 
	C707.158142,32.510708 705.907532,35.965427 703.775574,37.749607 
	C697.067993,43.363121 691.369385,39.404255 688.055786,32.004898 
	C687.471313,30.699598 687.564575,29.090786 687.394958,27.241440 
z"/>
<path fill="#F87B59" opacity="1.000000" stroke="none" 
	d="
M66.574753,87.288452 
	C70.362434,94.251213 70.512230,94.286865 80.249161,90.461151 
	C80.635529,99.936798 80.560387,108.967934 80.051285,117.999443 
	C75.294540,117.971825 70.971733,117.943840 66.648926,117.915848 
	C66.570473,107.832741 66.492012,97.749641 66.574753,87.288452 
z"/>
<path fill="#FB863C" opacity="1.000000" stroke="none" 
	d="
M198.868622,130.549896 
	C197.480225,131.824020 196.260071,132.928146 194.833481,133.378754 
	C192.922546,133.982376 190.507431,134.856598 188.950928,134.166443 
	C187.525146,133.534256 186.428452,131.069336 186.111557,129.250809 
	C185.423660,125.303383 185.326263,121.253067 184.613251,117.134811 
	C184.201920,112.965210 184.164764,108.905617 184.225586,104.468277 
	C189.114212,105.332512 193.609146,104.575806 198.281631,102.138077 
	C198.791702,111.487373 198.868317,120.788132 198.868622,130.549896 
z"/>
<path fill="#040107" opacity="1.000000" stroke="none" 
	d="
M517.086487,298.000305 
	C517.086487,305.463135 517.086487,312.425995 517.086487,319.696014 
	C514.134521,319.696014 511.383698,319.696014 508.271240,319.696014 
	C508.271240,306.367462 508.271240,292.868896 508.271240,279.139954 
	C511.059296,279.139954 513.803650,279.139954 517.086487,279.139954 
	C517.086487,285.314484 517.086487,291.407440 517.086487,298.000305 
z"/>
<path fill="#6FAA5D" opacity="1.000000" stroke="none" 
	d="
M437.078461,147.956665 
	C443.291229,155.320648 446.835876,165.453873 458.458618,167.262512 
	C455.604431,169.972778 431.307465,170.743973 424.463531,169.024673 
	C426.012726,166.292770 427.586273,163.517990 429.255493,160.029282 
	C431.926971,155.529129 434.502716,151.742905 437.078461,147.956665 
z"/>
<path fill="#01040C" opacity="1.000000" stroke="none" 
	d="
M600.586792,304.000793 
	C600.586731,299.188934 600.586731,294.875885 600.586731,290.176117 
	C606.866211,288.844055 613.171082,293.076141 619.633423,288.942261 
	C619.633423,292.100830 619.633423,294.161743 619.633423,295.944855 
	C616.910522,297.496918 613.242676,298.453003 611.647217,300.811218 
	C610.000671,303.244812 610.178406,307.026611 609.912781,310.247833 
	C609.657898,313.339508 609.857788,316.468658 609.857788,319.786163 
	C606.657837,319.786163 603.905640,319.786163 600.586792,319.786163 
	C600.586792,314.653015 600.586792,309.576324 600.586792,304.000793 
z"/>
<path fill="#01040C" opacity="1.000000" stroke="none" 
	d="
M317.466003,319.494385 
	C314.512024,319.844421 311.875763,319.844421 308.914154,319.844421 
	C308.914154,310.074707 308.914154,300.362396 308.914154,290.128021 
	C314.955719,288.730743 321.331329,293.285004 327.781433,288.749817 
	C327.781433,292.259888 327.781433,294.208832 327.781433,295.673920 
	C324.802704,297.504883 320.987183,298.629028 319.417084,301.151093 
	C317.773468,303.791168 318.170135,307.764740 317.895355,311.173218 
	C317.682312,313.816101 317.808380,316.486298 317.466003,319.494385 
z"/>
<path fill="#F66E64" opacity="1.000000" stroke="none" 
	d="
M66.506264,118.295670 
	C70.971733,117.943840 75.294540,117.971825 80.142929,118.459732 
	C80.608482,127.950233 80.548439,136.980820 80.488388,146.011398 
	C78.465027,141.850159 75.906052,138.801193 70.481262,139.778854 
	C69.672089,139.924683 68.403564,137.521683 67.012634,136.057220 
	C66.622917,134.842865 66.568115,133.869125 66.842216,132.407486 
	C66.990456,131.295288 66.809792,130.670990 66.629120,130.046677 
	C66.540611,126.256279 66.452103,122.465881 66.506264,118.295670 
z"/>
<path fill="#F9A62F" opacity="1.000000" stroke="none" 
	d="
M283.993164,64.987953 
	C278.003784,70.725853 274.751251,77.706223 274.109100,86.002998 
	C274.006409,87.329964 272.786163,89.602692 272.024933,89.626907 
	C270.538605,89.674179 268.587219,88.816483 267.576324,87.672531 
	C263.596741,83.169128 263.807251,78.212326 266.105103,72.818329 
	C269.056702,65.889771 274.392517,62.063351 281.561890,60.018188 
	C282.630402,61.868484 283.311768,63.428219 283.993164,64.987953 
z"/>
<path fill="#F76F4A" opacity="1.000000" stroke="none" 
	d="
M154.090851,127.002434 
	C152.202713,133.478806 150.314560,139.955170 147.811096,146.712952 
	C143.325058,145.282837 139.454330,143.571320 135.632095,141.440887 
	C136.645477,136.642929 137.610367,132.263870 139.015320,127.915009 
	C144.333893,127.630928 149.212372,127.316681 154.090851,127.002434 
z"/>
<path fill="#F6654F" opacity="1.000000" stroke="none" 
	d="
M135.583603,141.859802 
	C139.454330,143.571320 143.325058,145.282837 147.582275,146.992004 
	C144.630173,155.540787 138.845139,161.963577 130.590790,166.635025 
	C128.970612,164.173004 127.710472,161.627380 126.174088,158.698792 
	C129.126434,152.830490 132.355026,147.345154 135.583603,141.859802 
z"/>
<path fill="#89AD52" opacity="1.000000" stroke="none" 
	d="
M409.949524,130.515717 
	C411.745728,124.953491 413.552307,119.758728 415.608765,114.313385 
	C418.848999,119.055237 421.839264,124.047653 424.933838,129.788635 
	C424.679321,132.760437 424.823700,135.242920 423.843292,137.145935 
	C422.384216,139.978104 420.130585,142.400909 418.215057,144.997925 
	C415.769348,141.202011 413.290527,137.426697 410.905060,133.593292 
	C410.411865,132.800766 410.265900,131.792175 409.949524,130.515717 
z"/>
<path fill="#01040C" opacity="1.000000" stroke="none" 
	d="
M633.487183,290.482544 
	C633.788208,300.325378 633.788208,309.798706 633.788208,319.639282 
	C630.803345,319.639282 627.930298,319.639282 624.815186,319.639282 
	C624.815186,309.905182 624.815186,300.171478 624.815186,290.113098 
	C627.635803,290.113098 630.411011,290.113098 633.487183,290.482544 
z"/>
<path fill="#FA7A3E" opacity="1.000000" stroke="none" 
	d="
M154.279602,126.631546 
	C149.212372,127.316681 144.333893,127.630928 139.028076,127.466217 
	C139.025253,121.656418 139.449783,116.325592 139.874313,110.994766 
	C144.854874,111.091484 149.924011,111.613029 154.508972,108.012062 
	C154.744461,114.088921 154.606415,120.174797 154.279602,126.631546 
z"/>
<path fill="#7EAF5B" opacity="1.000000" stroke="none" 
	d="
M418.282837,145.320160 
	C420.130585,142.400909 422.384216,139.978104 423.843292,137.145935 
	C424.823700,135.242920 424.679321,132.760437 425.077362,130.106903 
	C429.088837,135.534286 433.061096,141.391998 437.055908,147.603195 
	C434.502716,151.742905 431.926971,155.529129 429.200500,159.614929 
	C425.483398,155.157120 421.916992,150.399750 418.282837,145.320160 
z"/>
<path fill="#7EAF5B" opacity="1.000000" stroke="none" 
	d="
M424.358002,86.957367 
	C423.700867,85.937996 423.343842,84.764290 422.970276,83.216324 
	C424.378510,80.684021 426.009369,78.630478 427.171295,76.339127 
	C428.379333,73.956825 429.503967,71.415176 429.999237,68.816330 
	C430.717285,65.048485 427.770355,64.180779 424.900391,63.418098 
	C424.476257,63.305389 424.249451,62.450314 423.097321,60.597267 
	C430.409271,60.597267 436.724304,60.597267 443.541168,61.094482 
	C444.068298,63.130852 444.093597,64.670006 444.118927,66.209152 
	C437.631989,73.073776 431.145050,79.938408 424.358002,86.957367 
z"/>
<path fill="#FBB8AD" opacity="1.000000" stroke="none" 
	d="
M358.330780,234.046585 
	C355.682953,227.865021 356.890533,225.212097 365.211395,220.242706 
	C369.906128,219.949585 373.883545,219.920013 377.860962,219.890442 
	C377.684265,220.656372 377.681396,221.523392 377.303894,222.172531 
	C373.685425,228.394714 373.765076,228.644287 380.196381,231.451843 
	C380.623230,231.638184 380.742889,232.528244 380.640381,233.661652 
	C377.516846,234.465851 374.758362,234.699417 371.695312,234.797119 
	C369.011871,232.655273 366.632996,230.649292 363.850983,228.303345 
	C362.935150,230.747147 362.319244,232.390686 361.361938,234.037155 
	C360.123962,234.042252 359.227356,234.044418 358.330780,234.046585 
z"/>
<path fill="#1686D3" opacity="1.000000" stroke="none" 
	d="
M644.349243,171.141083 
	C644.951294,170.309662 646.008179,169.762482 646.818909,168.964966 
	C648.284546,167.523315 649.603027,165.932220 650.970764,164.058197 
	C658.266724,164.180573 664.326721,161.947113 668.769348,155.821503 
	C669.345093,155.027679 670.878845,154.928635 671.968811,154.507782 
	C671.864685,155.639908 672.159058,157.048065 671.595398,157.861938 
	C665.106750,167.230820 656.678162,172.870346 644.349243,171.141083 
z"/>
<path fill="#1686D3" opacity="1.000000" stroke="none" 
	d="
M639.364502,65.312485 
	C640.176392,64.863304 641.591492,64.620224 642.707397,63.908157 
	C643.427795,63.448479 643.709656,62.301548 644.058533,61.134029 
	C650.859985,60.667915 657.792786,60.411716 664.719788,60.522648 
	C665.741943,60.539013 666.736206,62.293636 667.743408,63.244041 
	C666.720093,63.980484 665.706665,65.338562 664.671814,65.355011 
	C656.397156,65.486549 648.118408,65.364273 639.364502,65.312485 
z"/>
<path fill="#A2A7D5" opacity="1.000000" stroke="none" 
	d="
M390.047119,237.056580 
	C388.171356,232.009735 393.163391,231.978043 395.378540,230.146713 
	C396.898865,228.889832 399.248016,228.635529 401.563599,227.813461 
	C401.686066,227.977615 402.587463,229.185791 404.140350,231.267151 
	C404.759064,228.342377 405.000580,227.200760 405.940399,225.999268 
	C408.890411,225.547104 411.142120,225.154831 413.393799,224.762573 
	C415.038483,227.978134 413.612152,230.356064 410.737061,232.770737 
	C403.474152,234.387375 396.760651,235.721970 390.047119,237.056580 
z"/>
<path fill="#FB863C" opacity="1.000000" stroke="none" 
	d="
M384.007324,209.990982 
	C383.785553,210.249176 383.563751,210.507370 382.716919,210.560852 
	C381.075348,209.932892 380.058838,209.509628 379.152466,208.737503 
	C379.845062,207.510315 380.427551,206.632004 381.736481,204.658371 
	C378.276337,205.206619 375.985626,205.569565 373.352600,205.932892 
	C372.325867,205.950333 371.641449,205.967407 370.957062,205.984467 
	C371.863403,204.995758 372.583710,203.615784 373.706329,203.082001 
	C380.856598,199.682312 388.207275,199.585159 395.708649,202.878525 
	C395.531952,204.702301 395.275940,205.878891 395.019897,207.055466 
	C394.921997,207.377197 394.733032,207.631195 394.010193,207.620468 
	C389.143616,205.451645 385.181915,206.515610 384.007324,209.990982 
z"/>
<path fill="#FEA562" opacity="1.000000" stroke="none" 
	d="
M370.692932,206.077728 
	C371.641449,205.967407 372.325867,205.950333 373.444946,206.303223 
	C373.591217,208.313080 373.302795,209.952972 372.894653,212.273666 
	C375.440094,210.953964 377.241211,210.020172 379.042328,209.086365 
	C380.058838,209.509628 381.075348,209.932892 382.459839,210.616974 
	C382.747253,212.078339 382.666718,213.278870 382.555939,214.930496 
	C381.760284,214.476349 381.088196,214.092712 380.428802,213.716339 
	C379.642700,215.474487 378.795715,217.368790 377.904846,219.576752 
	C373.883545,219.920013 369.906128,219.949585 365.466919,219.984711 
	C366.059784,218.733292 366.873352,217.031265 368.215118,216.304413 
	C371.962097,214.274673 370.584991,212.129013 368.884369,209.082001 
	C368.997437,207.941055 369.020386,207.510284 369.043335,207.079498 
	C369.505157,206.776657 369.966980,206.473816 370.692932,206.077728 
z"/>
<path fill="#1DA49B" opacity="1.000000" stroke="none" 
	d="
M494.931030,155.521240 
	C494.250610,155.005127 493.083862,154.027084 493.078339,153.042557 
	C492.972473,134.117188 492.991364,115.191010 493.051056,96.265213 
	C493.053223,95.577530 493.732056,94.891983 494.483612,94.109421 
	C494.909546,114.361031 494.947418,134.708664 494.931030,155.521240 
z"/>
<path fill="#080507" opacity="1.000000" stroke="none" 
	d="
M337.667847,321.772003 
	C336.344452,325.860229 333.877502,326.887939 330.632141,325.748291 
	C330.632141,322.554749 330.477936,319.463379 330.703094,316.399872 
	C330.802216,315.051147 331.417511,312.857910 332.244781,312.623535 
	C334.137390,312.087372 336.431000,312.130402 338.304413,312.735199 
	C339.169342,313.014404 339.969604,315.218842 339.837189,316.446594 
	C339.652222,318.160950 338.566681,319.778198 337.667847,321.772003 
z"/>
<path fill="#F9A62F" opacity="1.000000" stroke="none" 
	d="
M319.340210,108.991135 
	C319.892975,110.535583 320.894745,112.071663 320.923737,113.625885 
	C321.081085,122.065407 320.787079,130.517487 321.109222,138.947632 
	C321.226959,142.029739 322.634613,145.057556 323.410706,148.121063 
	C324.051758,150.651489 325.167572,153.328842 321.396118,154.943970 
	C320.325775,154.018707 319.630402,153.045105 318.710144,152.255157 
	C318.234863,152.209625 317.984436,151.980484 317.510010,151.080688 
	C317.959320,145.559326 319.041412,140.723373 319.217072,135.854721 
	C319.539825,126.910355 319.328766,117.946732 319.340210,108.991135 
z"/>
<path fill="#67B8DA" opacity="1.000000" stroke="none" 
	d="
M389.872894,237.341339 
	C396.760651,235.721970 403.474152,234.387375 410.560028,233.081482 
	C410.417633,235.919022 408.522797,237.269470 405.161133,237.944336 
	C398.582123,239.668762 392.752930,241.311081 386.923706,242.953400 
	C387.848694,241.177628 388.773682,239.401871 389.872894,237.341339 
z"/>
<path fill="#5DB275" opacity="1.000000" stroke="none" 
	d="
M395.454559,254.241684 
	C385.136780,258.324127 375.804626,256.403137 367.570862,249.301376 
	C372.926147,249.627487 377.982178,250.266876 383.423584,250.979614 
	C387.690857,252.115860 391.572693,253.178772 395.454559,254.241684 
z"/>
<path fill="#46A9DA" opacity="1.000000" stroke="none" 
	d="
M386.602020,243.011978 
	C392.752930,241.311081 398.582123,239.668762 404.818665,238.043884 
	C404.448242,239.491211 403.670471,240.921112 402.945862,242.680206 
	C402.998962,243.009415 403.062622,243.005661 402.789246,242.998138 
	C402.384583,243.314194 402.253265,243.637756 401.736206,243.988678 
	C398.581421,245.367676 395.812408,246.719345 392.591339,248.053162 
	C389.432220,248.009949 386.725189,247.984604 384.010162,247.622772 
	C384.357147,246.030807 384.712097,244.775360 385.067078,243.519897 
	C385.471497,243.370132 385.875916,243.220352 386.602020,243.011978 
z"/>
<path fill="#3BB4A7" opacity="1.000000" stroke="none" 
	d="
M486.515320,59.879913 
	C484.793182,63.163544 482.642365,66.461647 480.175110,69.905609 
	C477.406403,68.458969 474.945618,66.879364 472.507141,65.266083 
	C471.776672,64.782799 471.108429,64.205475 470.411682,63.671211 
	C471.241333,63.110203 472.008026,62.215061 472.911285,62.044876 
	C477.282959,61.221199 481.691284,60.592312 486.515320,59.879913 
z"/>
<path fill="#3BB4A7" opacity="1.000000" stroke="none" 
	d="
M504.385742,66.651855 
	C505.931793,67.351013 507.160431,68.191856 508.787354,69.071320 
	C502.718353,73.004303 500.388763,79.903923 496.591431,86.056046 
	C495.828278,84.364822 495.403900,82.601089 494.989380,80.419907 
	C498.022217,75.599487 501.045288,71.196510 504.385742,66.651855 
z"/>
<path fill="#67B8DA" opacity="1.000000" stroke="none" 
	d="
M384.758575,243.334534 
	C384.712097,244.775360 384.357147,246.030807 383.761719,247.660156 
	C383.355347,248.056076 383.189484,248.078094 382.617676,248.051483 
	C377.949524,247.353668 373.687408,246.704483 369.373169,245.708633 
	C369.895782,243.888641 370.470490,242.415314 371.494019,240.959717 
	C375.540802,240.688705 379.138702,240.399963 382.736633,240.111206 
	C383.307770,241.123871 383.878937,242.136520 384.758575,243.334534 
z"/>
<path fill="#080507" opacity="1.000000" stroke="none" 
	d="
M631.972656,285.494446 
	C631.028137,285.829620 630.251343,286.192322 629.752563,285.959473 
	C627.840332,285.066742 625.193054,284.392059 624.422729,282.840393 
	C623.809998,281.606049 625.047546,278.197815 626.335266,277.584259 
	C628.049988,276.767334 631.264587,276.976166 632.607239,278.149353 
	C633.752075,279.149689 633.210266,282.133789 633.287781,284.244995 
	C633.299622,284.566528 632.625122,284.913300 631.972656,285.494446 
z"/>
<path fill="#3BB4A7" opacity="1.000000" stroke="none" 
	d="
M486.433533,169.575439 
	C486.272369,169.059158 486.640045,168.299026 486.845428,168.340591 
	C491.908112,169.365509 493.463715,165.370071 495.963074,162.081039 
	C498.583435,163.367676 500.917419,164.808136 503.178955,166.354492 
	C503.885559,166.837646 504.396820,167.606522 504.997498,168.244598 
	C504.117676,168.745010 503.247833,169.656357 502.356384,169.678024 
	C497.202667,169.803345 492.043854,169.718674 486.433533,169.575439 
z"/>
<path fill="#2FAAA1" opacity="1.000000" stroke="none" 
	d="
M383.023682,248.100098 
	C383.189484,248.078094 383.355347,248.056076 383.769714,247.996643 
	C386.725189,247.984604 389.432220,248.009949 392.841766,248.315033 
	C396.054810,249.439346 398.565369,250.283966 401.075897,251.128601 
	C399.420288,252.128281 397.764648,253.127975 395.781799,254.184677 
	C391.572693,253.178772 387.690857,252.115860 383.416809,250.629562 
	C383.024292,249.504150 383.023987,248.802124 383.023682,248.100098 
z"/>
<path fill="#1CA9B5" opacity="1.000000" stroke="none" 
	d="
M401.415222,251.055420 
	C398.565369,250.283966 396.054810,249.439346 393.293854,248.332870 
	C395.812408,246.719345 398.581421,245.367676 402.048035,243.966782 
	C402.851288,243.613602 402.956970,243.309631 403.062622,243.005661 
	C403.062622,243.005661 402.998962,243.009415 403.000916,243.041107 
	C405.929962,245.565063 407.631805,242.932327 409.516754,241.065460 
	C409.818207,241.454315 410.119659,241.843155 410.421112,242.231995 
	C407.532257,245.148743 404.643402,248.065506 401.415222,251.055420 
z"/>
<path fill="#A2A7D5" opacity="1.000000" stroke="none" 
	d="
M382.670868,239.747147 
	C379.138702,240.399963 375.540802,240.688705 371.490356,240.576355 
	C371.358551,238.427826 371.679230,236.680389 371.999908,234.932968 
	C374.758362,234.699417 377.516846,234.465851 380.637543,234.045105 
	C381.534882,235.699646 382.070007,237.541351 382.670868,239.747147 
z"/>
<path fill="#3BB4A7" opacity="1.000000" stroke="none" 
	d="
M382.617676,248.051483 
	C383.023987,248.802124 383.024292,249.504150 383.031403,250.556213 
	C377.982178,250.266876 372.926147,249.627487 367.458038,248.974548 
	C366.115173,248.144104 365.184387,247.327225 364.352692,246.000641 
	C365.221710,245.348846 365.991669,245.206757 366.938232,245.335785 
	C367.884979,245.756378 368.655121,245.905838 369.425262,246.055313 
	C373.687408,246.704483 377.949524,247.353668 382.617676,248.051483 
z"/>
<path fill="#F9AF3C" opacity="1.000000" stroke="none" 
	d="
M345.356842,167.931244 
	C344.369965,167.008270 343.697113,165.955353 343.029968,164.572891 
	C345.589661,161.452835 348.143677,158.662308 351.505737,154.988937 
	C351.694550,156.391663 352.501007,158.128815 351.948486,159.057083 
	C350.120026,162.129013 347.801422,164.909180 345.356842,167.931244 
z"/>
<path fill="#8ABF88" opacity="1.000000" stroke="none" 
	d="
M444.511230,66.192398 
	C444.093597,64.670006 444.068298,63.130852 444.006592,61.129066 
	C446.768188,60.511158 449.569519,60.216484 452.362030,60.284611 
	C453.212372,60.305363 454.038330,61.325722 454.875458,61.888271 
	C454.071655,62.548302 453.366699,63.473244 452.444946,63.817169 
	C449.980865,64.736549 447.423706,65.406555 444.511230,66.192398 
z"/>
<path fill="#1686D3" opacity="1.000000" stroke="none" 
	d="
M638.477295,49.605766 
	C636.181946,49.651798 634.022827,49.291855 631.553833,48.969372 
	C632.607910,46.475544 633.971924,43.944260 635.997253,41.197292 
	C637.214966,40.994030 637.771240,41.006451 638.327576,41.018867 
	C638.422913,43.745842 638.518250,46.472816 638.477295,49.605766 
z"/>
<path fill="#F9AF3C" opacity="1.000000" stroke="none" 
	d="
M284.328247,64.950668 
	C283.311768,63.428219 282.630402,61.868484 281.926270,59.916435 
	C283.667053,58.976505 285.430603,58.428890 287.562927,57.877197 
	C288.615723,59.075405 289.299683,60.277691 289.984558,61.852074 
	C288.211395,63.120579 286.437347,64.016983 284.328247,64.950668 
z"/>
<path fill="#F9A62F" opacity="1.000000" stroke="none" 
	d="
M292.003143,106.010956 
	C295.715607,105.391502 299.428040,104.772049 303.490662,104.524811 
	C301.554291,106.470055 299.267761,108.043091 296.620697,109.779312 
	C295.229614,110.160309 294.199066,110.378120 293.111267,110.202805 
	C292.703735,108.543427 292.353424,107.277191 292.003143,106.010956 
z"/>
<path fill="#F66E64" opacity="1.000000" stroke="none" 
	d="
M406.231262,221.784988 
	C406.073090,219.333527 405.750916,216.876709 405.830841,214.433044 
	C405.866882,213.330872 406.704193,212.254898 407.672241,210.032120 
	C409.444977,213.922974 410.655975,216.580902 411.554443,219.662415 
	C409.571747,220.652328 407.901489,221.218658 406.231262,221.784988 
z"/>
<path fill="#FBB8AD" opacity="1.000000" stroke="none" 
	d="
M406.206146,222.198730 
	C407.901489,221.218658 409.571747,220.652328 411.573364,220.023712 
	C412.338501,221.327332 412.772278,222.693268 413.299927,224.410889 
	C411.142120,225.154831 408.890411,225.547104 406.203491,225.912109 
	C405.905853,224.794052 406.043457,223.703278 406.206146,222.198730 
z"/>
<path fill="#F9AF3C" opacity="1.000000" stroke="none" 
	d="
M296.981201,109.616112 
	C299.267761,108.043091 301.554291,106.470055 303.906494,104.569946 
	C305.049713,104.135956 306.127228,104.029045 307.603760,104.371086 
	C308.007172,105.816978 308.011566,106.813919 307.622192,107.915741 
	C303.812683,108.552452 300.396942,109.084274 296.981201,109.616112 
z"/>
<path fill="#F87B59" opacity="1.000000" stroke="none" 
	d="
M395.413574,207.061401 
	C395.275940,205.878891 395.531952,204.702301 395.932373,203.186920 
	C399.017914,204.414124 401.959076,205.980133 404.900238,207.546143 
	C404.703674,208.030548 404.507111,208.514954 404.310547,208.999344 
	C401.476105,208.355347 398.641663,207.711334 395.413574,207.061401 
z"/>
<path fill="#A2A7D5" opacity="1.000000" stroke="none" 
	d="
M358.303986,234.400116 
	C359.227356,234.044418 360.123962,234.042252 361.554626,234.332031 
	C363.023895,236.412842 363.959045,238.201721 364.510223,240.012436 
	C362.856873,240.036026 361.587524,240.037781 360.318176,240.039536 
	C359.637848,238.277588 358.957520,236.515625 358.303986,234.400116 
z"/>
<path fill="#FB7E42" opacity="1.000000" stroke="none" 
	d="
M384.354553,209.866776 
	C385.181915,206.515610 389.143616,205.451645 393.785339,207.707825 
	C391.906616,208.607468 389.830627,209.314163 387.703705,209.796417 
	C386.755859,210.011337 385.705566,209.774429 384.354553,209.866776 
z"/>
<path fill="#67B8DA" opacity="1.000000" stroke="none" 
	d="
M360.370636,240.361206 
	C361.587524,240.037781 362.856873,240.036026 364.809296,240.204254 
	C365.915436,241.937683 366.338531,243.501175 366.761597,245.064651 
	C365.991669,245.206757 365.221710,245.348846 364.247253,245.704468 
	C362.836151,244.172958 361.629639,242.427917 360.370636,240.361206 
z"/>
<path fill="#F9AF3C" opacity="1.000000" stroke="none" 
	d="
M291.729858,105.973259 
	C292.353424,107.277191 292.703735,108.543427 292.876434,110.409195 
	C291.134979,111.681564 289.571075,112.354408 288.007202,113.027245 
	C288.635376,111.100555 289.263580,109.173866 289.908142,106.841797 
	C290.435211,106.269455 290.945862,106.102509 291.729858,105.973259 
z"/>
<path fill="#F9AF3C" opacity="1.000000" stroke="none" 
	d="
M317.589600,103.957367 
	C317.997955,105.118286 317.994446,106.199844 317.560364,107.717621 
	C315.414154,108.034981 313.698486,107.916122 312.027435,107.469597 
	C312.380951,106.094650 312.689880,105.047371 312.998779,104.000092 
	C314.391754,103.959396 315.784729,103.918701 317.589600,103.957367 
z"/>
<path fill="#F9A62F" opacity="1.000000" stroke="none" 
	d="
M312.586304,103.929863 
	C312.689880,105.047371 312.380951,106.094650 311.633911,107.531281 
	C310.135864,107.884041 309.075897,107.847450 308.015961,107.810860 
	C308.011566,106.813919 308.007172,105.816978 308.005798,104.446480 
	C309.397125,104.001831 310.785492,103.930733 312.586304,103.929863 
z"/>
<path fill="#0C89D7" opacity="1.000000" stroke="none" 
	d="
M638.443237,40.672665 
	C637.771240,41.006451 637.214966,40.994030 636.242249,40.961334 
	C636.341553,38.415916 636.857300,35.890770 637.373047,33.365627 
	C637.636475,33.338055 637.899963,33.310486 638.163391,33.282913 
	C638.295227,35.630764 638.427063,37.978615 638.443237,40.672665 
z"/>
<path fill="#FEFDFC" opacity="1.000000" stroke="none" 
	d="
M368.864502,206.828979 
	C369.020386,207.510284 368.997437,207.941055 368.901062,208.687073 
	C367.790894,208.921066 366.754181,208.839828 365.717499,208.758591 
	C365.631775,208.446625 365.546051,208.134674 365.460358,207.822723 
	C366.535461,207.407974 367.610596,206.993225 368.864502,206.828979 
z"/>
<path fill="#FA9E33" opacity="1.000000" stroke="none" 
	d="
M199.716019,78.998947 
	C199.665192,79.765053 199.371475,80.601746 199.077759,81.438438 
	C198.826675,81.387878 198.575577,81.337326 198.324493,81.286766 
	C198.381683,80.645836 198.438858,80.004906 198.733307,79.188148 
	C199.138077,79.031395 199.305618,79.050468 199.716019,78.998947 
z"/>
<path fill="#F55D5F" opacity="1.000000" stroke="none" 
	d="
M66.515274,130.301376 
	C66.809792,130.670990 66.990456,131.295288 66.918388,132.045166 
	C66.577576,131.632507 66.489502,131.094299 66.515274,130.301376 
z"/>
<path fill="#F9AF3C" opacity="1.000000" stroke="none" 
	d="
M300.259094,169.586075 
	C300.448303,169.032501 300.925690,168.524780 301.691345,168.004532 
	C301.502167,168.538635 301.024719,169.085281 300.259094,169.586075 
z"/>
<path fill="#F35260" opacity="1.000000" stroke="none" 
	d="
M66.572830,158.343674 
	C66.836273,158.628922 66.977409,159.230759 66.907654,159.901917 
	C66.614685,159.534256 66.532600,159.097260 66.572830,158.343674 
z"/>
<path fill="#FEA562" opacity="1.000000" stroke="none" 
	d="
M367.819153,212.396713 
	C367.493835,212.258392 367.381683,211.906860 367.269531,211.555328 
	C367.509369,211.523605 367.749176,211.491898 367.989014,211.460175 
	C368.003479,211.701294 368.017914,211.942398 367.819153,212.396713 
z"/>
<path fill="#FA9E33" opacity="1.000000" stroke="none" 
	d="
M198.796677,58.670158 
	C198.547531,58.711773 198.321533,58.457458 198.020782,57.951519 
	C198.237305,57.924679 198.528549,58.149456 198.796677,58.670158 
z"/>
<path fill="#FEFDFC" opacity="1.000000" stroke="none" 
	d="
M364.449646,210.532288 
	C364.416382,210.476547 364.482941,210.588028 364.449646,210.532288 
z"/>
<path fill="#FEFDFC" opacity="1.000000" stroke="none" 
	d="
M307.622192,107.915741 
	C309.075897,107.847450 310.135864,107.884041 311.589325,107.858948 
	C313.698486,107.916122 315.414154,108.034981 317.559052,108.123367 
	C318.282166,108.302063 318.576019,108.511215 319.105042,108.855759 
	C319.328766,117.946732 319.539825,126.910355 319.217072,135.854721 
	C319.041412,140.723373 317.959320,145.559326 317.137787,150.733261 
	C312.853760,154.720901 309.028198,158.832809 304.519043,161.958649 
	C294.440430,168.945297 277.198364,162.097839 275.384644,150.078827 
	C273.860016,139.975388 272.903381,129.440262 280.115387,120.598457 
	C282.263062,117.965462 285.034698,115.841408 287.763824,113.255707 
	C289.571075,112.354408 291.134979,111.681564 292.933655,110.802330 
	C294.199066,110.378120 295.229614,110.160309 296.620697,109.779297 
	C300.396942,109.084274 303.812683,108.552452 307.622192,107.915741 
z"/>
<path fill="#F5F7F3" opacity="1.000000" stroke="none" 
	d="
M156.073486,301.108398 
	C156.378387,302.279785 156.753510,303.079468 156.760117,303.882233 
	C156.796921,308.347748 153.865311,312.611267 150.274139,312.734650 
	C146.500259,312.864349 144.114426,310.536621 143.069580,307.024658 
	C141.719406,302.486481 143.583618,298.202667 147.596695,296.613892 
	C151.808014,294.946625 154.096695,297.498505 156.073486,301.108398 
z"/>
<path fill="#FEFDFD" opacity="1.000000" stroke="none" 
	d="
M139.749069,110.613174 
	C139.449783,116.325592 139.025253,121.656418 138.587982,127.436035 
	C137.610367,132.263870 136.645477,136.642929 135.632095,141.440887 
	C132.355026,147.345154 129.126434,152.830490 125.794647,158.659134 
	C120.224007,163.837418 113.713608,167.204819 106.578026,166.701752 
	C96.807167,166.012863 88.609703,161.498413 83.437798,151.855713 
	C82.703918,150.802155 82.280785,150.238541 81.857651,149.674942 
	C81.490791,148.699554 81.123932,147.724182 80.622734,146.380096 
	C80.548439,136.980820 80.608482,127.950233 80.576881,118.459366 
	C80.560387,108.967934 80.635529,99.936798 80.602478,90.447998 
	C83.053772,74.846153 94.780640,61.754711 111.570160,62.943542 
	C126.315903,66.705688 133.501984,76.722946 136.157959,90.630608 
	C137.402451,97.147232 138.473938,103.696884 139.749069,110.613174 
z"/>
<path fill="#F66E64" opacity="1.000000" stroke="none" 
	d="
M81.505905,149.818085 
	C82.280785,150.238541 82.703918,150.802155 83.188065,151.630432 
	C82.550781,151.250473 81.852470,150.605835 81.505905,149.818085 
z"/>
<path fill="#EBEDEA" opacity="1.000000" stroke="none" 
	d="
M191.496628,301.949799 
	C187.945374,301.949921 184.826309,301.949921 181.422180,301.949921 
	C181.739319,297.967926 184.420029,296.459473 187.509644,296.107391 
	C191.123093,295.695618 193.759689,297.436218 194.865494,301.714966 
	C193.703964,301.807800 192.816391,301.878754 191.496628,301.949799 
z"/>
<path fill="#EBEDEA" opacity="1.000000" stroke="none" 
	d="
M436.115662,301.949951 
	C433.940094,301.949951 432.205597,301.949951 430.471130,301.949951 
	C430.213867,301.391846 429.956604,300.833710 429.699341,300.275604 
	C432.112244,298.847290 434.496979,296.356354 436.946014,296.291473 
	C439.363556,296.227386 441.846161,298.617004 444.300201,299.930206 
	C444.071747,300.603455 443.843292,301.276703 443.614838,301.949951 
	C441.262146,301.949951 438.909454,301.949951 436.115662,301.949951 
z"/>
<path fill="#EBEDEA" opacity="1.000000" stroke="none" 
	d="
M289.635742,301.949951 
	C286.295044,301.949951 283.391205,301.949951 280.487335,301.949951 
	C280.223206,301.414062 279.959045,300.878204 279.694916,300.342316 
	C282.085419,298.892242 284.440155,296.374481 286.876495,296.292877 
	C289.304504,296.211578 291.814392,298.573730 294.288361,299.864502 
	C294.072174,300.447723 293.855957,301.030945 293.639771,301.614166 
	C292.450684,301.726074 291.261627,301.838013 289.635742,301.949951 
z"/>
<path fill="#F5F7F3" opacity="1.000000" stroke="none" 
	d="
M111.658279,296.385254 
	C119.104752,296.329803 123.151512,302.363800 120.415588,308.753540 
	C118.821571,312.476379 114.942596,314.513367 111.697975,313.331482 
	C107.409874,311.769470 104.705963,306.834045 106.432198,302.435394 
	C107.315804,300.183838 109.637558,298.496674 111.658279,296.385254 
z"/>
<path fill="#F5F7F3" opacity="1.000000" stroke="none" 
	d="
M543.447998,297.425293 
	C544.847168,299.794037 546.539551,301.831543 546.899780,304.082214 
	C547.556763,308.186798 545.887207,311.511078 541.765625,313.237488 
	C538.114807,314.766724 535.582031,312.921661 533.709473,310.240021 
	C531.176270,306.612366 531.303223,302.668793 533.997437,299.152527 
	C536.375610,296.048767 539.476562,294.967590 543.447998,297.425293 
z"/>
<path fill="#FDFDFD" opacity="1.000000" stroke="none" 
	d="
M366.938232,245.335785 
	C366.338531,243.501175 365.915436,241.937683 365.193298,240.182404 
	C363.959045,238.201721 363.023895,236.412842 361.896027,234.329102 
	C362.319244,232.390686 362.935150,230.747147 363.850983,228.303345 
	C366.632996,230.649292 369.011871,232.655273 371.695312,234.797119 
	C371.679230,236.680389 371.358551,238.427826 371.041534,240.558624 
	C370.470490,242.415314 369.895782,243.888641 369.373169,245.708633 
	C368.655121,245.905838 367.884979,245.756378 366.938232,245.335785 
z"/>
<path fill="#FEFDFC" opacity="1.000000" stroke="none" 
	d="
M379.152466,208.737503 
	C377.241211,210.020172 375.440094,210.953964 372.894653,212.273666 
	C373.302795,209.952972 373.591217,208.313080 373.787292,206.302856 
	C375.985626,205.569565 378.276337,205.206619 381.736481,204.658371 
	C380.427551,206.632004 379.845062,207.510315 379.152466,208.737503 
z"/>
<path fill="#FDFDFD" opacity="1.000000" stroke="none" 
	d="
M402.789276,242.998138 
	C402.956970,243.309631 402.851288,243.613602 402.433807,243.939453 
	C402.253265,243.637756 402.384583,243.314194 402.789276,242.998138 
z"/>
</svg>